<?xml version="1.0" encoding="utf-8"?>
<!-- Generator: Adobe Illustrator 22.1.0, SVG Export Plug-In . SVG Version: 6.00 Build 0)  -->
<svg version="1.1" id="Layer_1" xmlns="http://www.w3.org/2000/svg" xmlns:xlink="http://www.w3.org/1999/xlink" x="0px" y="0px"
	 viewBox="0 0 100 100" style="enable-background:new 0 0 100 100;" xml:space="preserve">
<g>
	<g>
		<path d="M56.4,57.5c-0.1,0.3-0.5,0.8-1.1,1.5s-1.2,0.8-1.6,0.5c-0.1-0.1-1-0.9-2.7-2.6c-1.7-1.7-2.6-2.5-2.7-2.5
			c-0.1,0-1,0.8-2.6,2.5c-1.6,1.6-2.6,2.5-2.7,2.6c-0.4,0.2-0.7,0.1-1.1-0.3l-0.3-0.3c-0.8-0.8-1.2-1.4-1.1-1.8
			c0.1-0.3,0.7-1,1.8-2.1l0.8-0.8l0.3-0.3l1.1-1.1c0.6-0.6,1-1,1-1.2c0-0.1-0.3-0.6-1.1-1.4L43,49l-1.3-1.4
			c-0.2-0.2-0.4-0.5-0.8-0.9c-0.4-0.4-0.5-0.7-0.4-1.1c0.1-0.3,0.4-0.8,1-1.3l0.3-0.3c0.5-0.5,0.8-0.7,1.1-0.6c0.2,0.1,1.2,1,3,2.7
			c1.7,1.7,2.7,2.6,2.8,2.6c0.1,0,1-0.9,2.7-2.5c1.7-1.7,2.6-2.6,2.7-2.6c0.4-0.2,0.7,0,1.1,0.3c1,1,1.4,1.7,1.2,2.1
			c-0.1,0.3-0.8,1-2,2.3l-2.2,2.2c-0.5,0.5-0.8,0.9-0.6,1.1c0,0,0.5,0.5,1.4,1.4l1.9,1.9l1.1,1.1C56.3,56.7,56.5,57.2,56.4,57.5z"/>
	</g>
</g>
</svg>
