<?xml version="1.0" encoding="utf-8"?>
<!-- Generator: Adobe Illustrator 18.0.0, SVG Export Plug-In . SVG Version: 6.00 Build 0)  -->
<!DOCTYPE svg PUBLIC "-//W3C//DTD SVG 1.1//EN" "http://www.w3.org/Graphics/SVG/1.1/DTD/svg11.dtd">
<svg version="1.1" id="Layer_1" xmlns="http://www.w3.org/2000/svg" xmlns:xlink="http://www.w3.org/1999/xlink" x="0px" y="0px"
	 viewBox="0 0 1224 792" enable-background="new 0 0 1224 792" xml:space="preserve">
<g>
	<polygon fill="#F4F4F4" points="610.8,305.7 622.8,210.6 622.8,306.4 646.6,213.6 634.6,308.7 669.8,219.6 646,312.4 692.1,228.4 
		656.8,317.5 713.1,239.9 666.9,323.9 732.5,254 676.2,331.5 750,270.4 684.4,340.3 765.3,288.9 691.4,350 778.1,309.1 697.2,360.5 
		788.3,330.8 701.6,371.6 795.7,353.6 704.6,383.2 800.2,377.2 706.1,395.1 801.7,401.1 706.1,407.1 800.2,425 704.6,419 
		795.7,448.6 701.6,430.6 788.3,471.4 697.2,441.7 778.1,493 691.4,452.2 765.3,513.3 684.4,461.9 750,531.8 676.2,470.7 
		732.5,548.2 666.9,478.3 713.1,562.2 656.8,484.7 692.1,573.8 646,489.8 669.8,582.6 634.6,493.5 646.6,588.6 622.8,495.8 
		622.8,591.6 610.8,496.5 598.8,591.6 598.9,495.8 575.1,588.6 587.1,493.5 551.9,582.6 575.7,489.8 529.6,573.8 564.9,484.7 
		508.6,562.2 554.7,478.3 489.2,548.2 545.5,470.7 471.7,531.8 537.3,461.9 456.4,513.3 530.3,452.2 443.6,493 524.5,441.7 
		433.4,471.4 520.1,430.6 426,448.6 517.1,419 421.5,425 515.6,407.1 420,401.1 515.6,395.1 421.5,377.2 517.1,383.2 426,353.6 
		520.1,371.6 433.4,330.8 524.5,360.5 443.6,309.1 530.3,350 456.4,288.9 537.3,340.3 471.7,270.4 545.5,331.5 489.2,254 
		554.7,323.9 508.6,239.9 564.9,317.5 529.6,228.4 575.7,312.4 551.9,219.6 587.1,308.7 575.1,213.6 598.9,306.4 598.8,210.6 	"/>
</g>
<g>
	<path fill="#231F20" d="M206.3,430.4v-15.8l-0.4-0.5c-0.2-0.1-0.1-0.4,0.2-0.4h4.7c1.4,0,2.9,0.1,3.9,0.8c0.5,0.3,1,0.8,1.2,1.4
		c0.3,0.6,0.4,1.4,0.4,2.4c0,1-0.2,1.9-0.5,2.6c1,1,1.4,2.5,1.4,4.6c0,2.3-0.5,3.8-1.6,4.7c-0.5,0.4-1.1,0.6-1.8,0.8
		c-0.6,0.1-1.3,0.2-2.1,0.2h-5.6c-0.2,0-0.3-0.2-0.2-0.4L206.3,430.4z M212.7,418.5c0-0.3-0.1-0.8-0.5-1c-0.3-0.2-0.8-0.2-1.4-0.2
		h-1.1v2.4h1.6C212.3,419.6,212.7,419.4,212.7,418.5z M210.8,423.2h-1v4.6h1c0.9,0,1.6-0.2,2-0.5c0.6-0.4,0.8-1,0.8-1.8
		c0-0.7-0.2-1.3-0.6-1.7c-0.4-0.4-0.9-0.6-1.6-0.6C211.2,423.2,211,423.2,210.8,423.2z"/>
	<path fill="#231F20" d="M227.5,422.2c-0.2,0-0.3-0.3-0.2-0.4l0.4-0.4v-15.8l-0.4-0.5c-0.2-0.1-0.1-0.4,0.2-0.4h9.4
		c0.1,0,0.2,0.1,0.2,0.2v3.3c0,0.2-0.2,0.4-0.4,0.2l-0.4-0.4h-5.1v3.6h3.9l0.4-0.4c0.2,0,0.4,0,0.4,0.2v3.8c0,0.2-0.2,0.3-0.4,0.2
		l-0.4-0.4h-3.9v3.9h5.1l0.4-0.4c0.1-0.2,0.4,0,0.4,0.2v3.3c0,0.1-0.1,0.2-0.2,0.2H227.5z"/>
	<path fill="#231F20" d="M247.4,396.2c-0.2-0.1-0.1-0.4,0.2-0.4h5.6c1.7,0,2.9,0.5,3.7,1.4c0.7,0.8,1,1.9,1,3.3v3.3
		c0,0.9-0.2,1.8-0.5,2.4c-0.4,0.8-0.9,1.4-1.6,1.7l2,4.4l0.5,0.5c0.2,0.1,0,0.4-0.2,0.4h-4.2c-0.2,0-0.4-0.2-0.2-0.4l0.3-0.4
		l-1.7-3.8h-1v3.8l0.4,0.4c0.2,0.2,0,0.4-0.2,0.4h-3.9c-0.2,0-0.3-0.3-0.2-0.4l0.4-0.4v-15.8L247.4,396.2z M251.7,405.4
		c1.1,0,1.7-0.2,2.1-0.5c0.4-0.3,0.6-0.9,0.6-1.8v-1.7c0-0.9-0.2-1.5-0.6-1.8c-0.4-0.3-1-0.5-2.1-0.5h-0.4v6.2H251.7z"/>
	<path fill="#231F20" d="M278.2,400.8v3.3c0,0.1-0.1,0.2-0.2,0.2h-9.4c-0.2,0-0.3-0.3-0.2-0.4l0.4-0.4v-15.8l-0.4-0.4
		c-0.2-0.1-0.1-0.4,0.2-0.4h3.9c0.2,0,0.3,0.2,0.2,0.4l-0.4,0.4V401h5.1l0.4-0.4C278,400.5,278.2,400.5,278.2,400.8z"/>
	<path fill="#231F20" d="M289.1,395.8V380l-0.4-0.5c-0.2-0.1-0.1-0.4,0.2-0.4h3.9c0.2,0,0.3,0.2,0.2,0.4l-0.4,0.5v15.8l0.4,0.4
		c0.1,0.1,0,0.4-0.2,0.4h-3.9c-0.2,0-0.3-0.3-0.2-0.4L289.1,395.8z"/>
	<path fill="#231F20" d="M303.8,372l-0.4-0.5c-0.2-0.1-0.1-0.4,0.2-0.4h3.5c0.1,0,0.2,0.1,0.2,0.1l3.7,8.5V372l-0.4-0.5
		c-0.1-0.1,0-0.4,0.2-0.4h4c0.2,0,0.3,0.2,0.2,0.4l-0.4,0.5v15.8l0.4,0.4c0.2,0.1,0.1,0.4-0.2,0.4h-4c-0.2,0-0.3-0.3-0.2-0.4
		l0.3-0.3l-3.6-8.1v8l0.4,0.4c0.1,0.1,0,0.4-0.2,0.4h-3.9c-0.2,0-0.3-0.3-0.2-0.4l0.4-0.4V372z"/>
</g>
<g>
	<path fill="#231F20" d="M926.5,375.9c0-1.1,0.4-2.1,1.1-3c1.1-1.1,2.7-1.8,4.4-1.8c1.7,0,3,0.5,4.1,1.5c1.1,1,1.7,2.3,1.8,4
		c0.1,2.1-1,4-3.4,5.6c-0.6,0.4-1.2,0.7-1.7,1.1c-1.3,0.8-2.2,1.3-2.2,2h5.8l0.4-0.4c0.1-0.2,0.4,0,0.4,0.2v3.5
		c0,0.1-0.1,0.2-0.2,0.2h-10.3c-0.1,0-0.2-0.1-0.2-0.2v-3c-0.1-0.9,0.1-2.8,2.3-4.6c1-0.9,1.9-1.4,2.8-1.9c1.1-0.6,1.9-1,2.3-1.8
		c0.3-0.5,0.2-1.1-0.1-1.6c-0.4-0.6-1.1-1-1.8-1c-0.6,0-1.1,0.2-1.4,0.6c-0.5,0.5-0.7,1.2-0.7,1.9l0.2,0.5c0.1,0.2-0.2,0.4-0.3,0.3
		l-3.3-1.9C926.5,376,926.5,375.9,926.5,375.9z"/>
	<path fill="#231F20" d="M948.3,394.2c-0.3-1-0.5-2.1-0.5-3.4v-2c0-1.3,0.2-2.4,0.5-3.4c0.3-1,0.7-1.8,1.3-2.5
		c0.6-0.7,1.3-1.2,2.1-1.6c0.8-0.3,1.7-0.5,2.8-0.5c1.1,0,2,0.2,2.8,0.5c0.9,0.4,1.6,0.9,2.1,1.5c1.1,1.4,1.7,3.4,1.7,5.9v2
		c0,1.3-0.2,2.4-0.4,3.4c-0.3,1-0.8,1.8-1.3,2.5c-0.6,0.7-1.3,1.2-2.1,1.5c-0.8,0.4-1.8,0.6-2.8,0.6c-1.1,0-2-0.2-2.8-0.6
		c-0.8-0.3-1.6-0.9-2.1-1.5C949,396,948.6,395.1,948.3,394.2z M952.3,385.6c-0.6,0.9-0.9,2.3-0.9,4.2c0,1.8,0.3,3.2,0.9,4.1
		c0.5,0.8,1.3,1.3,2.2,1.3c1,0,1.7-0.3,2.2-1.1c0.6-0.9,0.9-2.3,0.9-4.4c0-2.1-0.3-3.5-0.9-4.4c-0.5-0.7-1.3-1-2.2-1
		C953.6,384.3,952.8,384.8,952.3,385.6z"/>
	<path fill="#231F20" d="M971.4,395.7l-0.1-3.1c0,0,0-0.1,0.1-0.1l1.9-2.7c0.1,0,0.1-0.1,0.2-0.1h3.6c0.2,0,0.3,0.2,0.2,0.4
		l-0.4,0.4v15.8l0.4,0.4c0.1,0.1,0,0.4-0.2,0.4h-4c-0.1,0-0.3-0.3-0.1-0.4l0.4-0.4V394l-1.1,1.1l-0.4,0.6
		C971.8,396,971.4,396,971.4,395.7z"/>
	<path fill="#231F20" d="M987.5,411.7c0-0.1,0-0.2,0.1-0.3l2.8-1.9c0.1-0.2,0.4,0,0.4,0.2v0.1l-0.1,0.4c0,0.1,0.1,0.5,0.4,1
		c0.4,0.6,1,0.9,1.7,0.9c0.8,0,1.3-0.3,1.6-0.8c0.3-0.6,0.3-1.3,0.3-1.8c0-0.8-0.1-1.3-0.5-1.8c-0.4-0.5-1-0.8-1.9-0.8
		c-0.2,0-0.6,0-0.9,0.1c-1.9,0.3-2.8,0.5-3.1,0.5c-0.2,0-0.3-0.1-0.3-0.2v-8.6l-0.4-0.4c-0.1-0.1,0-0.4,0.2-0.4h8.9
		c0.1,0,0.2,0.1,0.2,0.2v3.3c0,0.2-0.3,0.3-0.4,0.2l-0.5-0.4h-4.6v2.5c0.5,0,1.1-0.1,1.5-0.1c1.1,0,1.9,0.1,2.6,0.4
		c1.1,0.5,1.8,1.2,2.2,2c0.4,0.7,0.5,1.7,0.5,2.9v0.5c0,1.6-0.5,3.1-1.3,4.1c-0.5,0.6-1.1,1.1-1.8,1.4c-0.7,0.4-1.6,0.6-2.6,0.6
		c-1.8,0-3.1-0.5-4-1.3C988.2,413.5,987.8,412.6,987.5,411.7L987.5,411.7z"/>
</g>
<g>
	<path fill="#010101" d="M204.7,389.9c2.5-0.4,4.9-1,7.3-1.5c2.4-0.6,4.8-1.1,7.3-1.8c2.4-0.6,4.8-1.3,7.2-2
		c2.4-0.7,4.7-1.5,7.1-2.3c2.3-0.8,4.7-1.7,6.9-2.6c1.1-0.5,2.3-0.9,3.4-1.4c1.1-0.5,2.2-1,3.4-1.5c1.1-0.6,2.2-1.1,3.3-1.7
		c1.1-0.6,2.1-1.2,3.2-1.8c1-0.6,2.1-1.3,3.1-2c1-0.7,2-1.4,3-2.1l1.6,2.5c-1.1,0.5-2,1-3.1,1.4c-1,0.4-2.1,0.7-3.2,1
		c-2.1,0.6-4.4,0.9-6.6,1c-2.2,0.1-4.5-0.2-6.7-0.8c-1.1-0.3-2.2-0.7-3.2-1.2c-0.5-0.2-1-0.5-1.5-0.8c-0.5-0.3-1-0.6-1.4-0.9
		c-1.8-1.3-3.6-2.9-4.6-5.1c-0.5-1.1-0.8-2.3-0.7-3.5c0-1.2,0.5-2.5,1.3-3.4c0.4-0.5,0.9-0.9,1.4-1.2c0.3-0.2,0.5-0.3,0.8-0.4
		l0.4-0.1l0.5-0.1c1.2-0.3,2.5-0.1,3.5,0.7c0.9,0.8,1.4,1.9,1.4,3.1c0,0.6-0.2,1.2-0.6,1.6c-0.4,0.4-0.9,0.7-1.4,0.7
		c0.5-0.2,1-0.4,1.2-0.9c0.3-0.4,0.3-0.9,0.3-1.4c-0.1-1-0.7-1.9-1.5-2.4c-0.8-0.5-1.7-0.6-2.6-0.3l-0.3,0.1l-0.4,0.2
		c-0.2,0.1-0.4,0.2-0.6,0.4c-0.4,0.3-0.7,0.6-0.9,1c-0.5,0.7-0.7,1.6-0.7,2.5c0,0.9,0.3,1.8,0.8,2.6c0.9,1.6,2.4,3,4.1,4
		c0.4,0.3,0.9,0.5,1.3,0.7c0.4,0.2,0.9,0.4,1.4,0.7c0.9,0.4,1.8,0.7,2.8,1c1.9,0.5,3.9,0.6,5.9,0.5c2-0.1,4-0.4,5.9-1
		c1-0.3,1.9-0.6,2.9-0.9c0.9-0.3,1.9-0.7,2.7-1.2l0.1,0c0.7-0.4,1.6-0.1,2,0.7c0.3,0.7,0.1,1.4-0.5,1.8c-1,0.8-2.1,1.5-3.1,2.2
		c-1.1,0.7-2.2,1.4-3.2,2c-1.1,0.6-2.2,1.2-3.4,1.8c-1.1,0.6-2.3,1.1-3.4,1.6c-1.2,0.5-2.3,1-3.5,1.5c-1.2,0.5-2.3,0.9-3.5,1.4
		c-2.4,0.9-4.8,1.6-7.2,2.4c-4.8,1.4-9.7,2.6-14.6,3.5C214.6,388.9,209.7,389.6,204.7,389.9z"/>
</g>
<g>
	<path fill="#010101" d="M326.2,400.5c-2.3,0.7-4.5,1.4-6.8,2.2c-2.2,0.8-4.5,1.5-6.7,2.4c-2.2,0.8-4.4,1.7-6.6,2.5
		c-2.2,0.9-4.4,1.8-6.5,2.8c-2.2,0.9-4.3,2-6.4,3c-1.1,0.5-2.1,1-3.1,1.6c-1,0.5-2.1,1.1-3.1,1.7c-1,0.6-2,1.2-3,1.8
		c-1,0.6-2,1.2-3,1.9c-2,1.3-3.9,2.6-5.7,4l-1.6-2.5c1.1-0.5,2-1,3.1-1.4c1-0.4,2.1-0.7,3.2-1c2.1-0.6,4.4-0.9,6.6-1
		c2.2-0.1,4.5,0.2,6.7,0.8c1.1,0.3,2.2,0.7,3.2,1.2c0.5,0.2,1,0.5,1.5,0.8c0.5,0.3,1,0.6,1.4,0.9c1.8,1.3,3.6,2.9,4.6,5.1
		c0.5,1.1,0.8,2.3,0.7,3.5c0,1.2-0.5,2.5-1.3,3.4c-0.4,0.5-0.9,0.9-1.4,1.2c-0.3,0.2-0.5,0.3-0.8,0.4l-0.4,0.1l-0.5,0.1
		c-1.2,0.3-2.5,0.1-3.5-0.7c-0.9-0.8-1.4-1.9-1.4-3.1c0-0.6,0.2-1.2,0.6-1.6c0.4-0.4,0.9-0.7,1.4-0.7c-0.5,0.2-1,0.4-1.2,0.9
		c-0.3,0.4-0.3,0.9-0.3,1.4c0.1,1,0.7,1.9,1.5,2.4c0.8,0.5,1.7,0.6,2.6,0.3l0.3-0.1l0.4-0.2c0.2-0.1,0.4-0.2,0.6-0.4
		c0.4-0.3,0.7-0.6,0.9-1c0.5-0.7,0.7-1.6,0.7-2.5c0-0.9-0.3-1.8-0.8-2.6c-0.9-1.6-2.4-3-4.1-4c-0.4-0.3-0.9-0.5-1.3-0.7
		c-0.4-0.2-0.9-0.4-1.4-0.7c-0.9-0.4-1.8-0.7-2.8-1c-1.9-0.5-3.9-0.6-5.9-0.5c-2,0.1-4,0.4-5.9,1c-1,0.3-1.9,0.6-2.9,0.9
		c-0.9,0.3-1.9,0.7-2.7,1.2l0,0c-0.7,0.4-1.6,0.1-2-0.7c-0.3-0.6-0.1-1.4,0.4-1.8c1.9-1.5,3.9-2.8,6-4.1c2.1-1.3,4.2-2.4,6.3-3.6
		c4.3-2.2,8.6-4.2,13.1-5.9c2.2-0.9,4.5-1.7,6.7-2.4c2.3-0.7,4.5-1.5,6.8-2.1C316.9,402.4,321.5,401.3,326.2,400.5z"/>
</g>
<g>
	<path fill="#010101" d="M1023.7,389.9c-5-0.4-9.9-1.1-14.9-2c-4.9-0.9-9.8-2.1-14.6-3.5c-2.4-0.7-4.8-1.5-7.2-2.4
		c-1.2-0.4-2.4-0.9-3.5-1.4c-1.2-0.5-2.3-1-3.5-1.5c-1.1-0.5-2.3-1.1-3.4-1.6c-1.1-0.6-2.3-1.2-3.4-1.8c-1.1-0.7-2.2-1.3-3.2-2
		c-1.1-0.7-2.1-1.5-3.1-2.2c-0.7-0.5-0.8-1.4-0.3-2c0.4-0.6,1.2-0.8,1.8-0.5l0.1,0c0.8,0.4,1.8,0.8,2.7,1.2c1,0.3,1.9,0.6,2.9,0.9
		c2,0.5,4,0.9,5.9,1c2,0.1,4-0.1,5.9-0.5c1-0.2,1.9-0.6,2.8-1c0.5-0.2,0.9-0.4,1.4-0.7c0.4-0.2,0.9-0.5,1.3-0.7c1.7-1,3.2-2.4,4.1-4
		c0.4-0.8,0.7-1.7,0.8-2.6c0-0.9-0.2-1.8-0.7-2.5c-0.2-0.4-0.6-0.7-0.9-1c-0.2-0.1-0.4-0.3-0.6-0.4l-0.4-0.2l-0.3-0.1
		c-0.9-0.3-1.8-0.2-2.6,0.3c-0.8,0.5-1.4,1.4-1.5,2.4c0,0.5,0,1,0.3,1.4c0.3,0.4,0.7,0.7,1.2,0.9c-0.5-0.1-1.1-0.3-1.4-0.7
		c-0.4-0.4-0.6-1-0.6-1.6c0-1.1,0.5-2.3,1.4-3.1c0.9-0.8,2.3-1,3.5-0.7l0.5,0.1l0.4,0.1c0.3,0.1,0.6,0.2,0.8,0.4
		c0.5,0.3,1,0.7,1.4,1.2c0.8,1,1.2,2.2,1.3,3.4c0,1.2-0.2,2.5-0.7,3.5c-1,2.2-2.8,3.8-4.6,5.1c-0.5,0.3-0.9,0.6-1.4,0.9
		c-0.5,0.3-1,0.6-1.5,0.8c-1,0.5-2.1,0.9-3.2,1.2c-2.2,0.6-4.5,0.9-6.7,0.8c-2.2-0.1-4.5-0.4-6.6-1c-1.1-0.3-2.1-0.6-3.2-1
		c-1-0.4-2-0.8-3.1-1.4l1.6-2.5c1,0.7,1.9,1.5,3,2.1c1,0.7,2.1,1.3,3.1,2c1.1,0.6,2.1,1.2,3.2,1.8c1.1,0.6,2.2,1.1,3.3,1.7
		c1.1,0.5,2.2,1.1,3.4,1.5c1.1,0.5,2.3,1,3.4,1.4c2.3,0.9,4.6,1.8,6.9,2.6c2.3,0.8,4.7,1.6,7.1,2.3c2.4,0.7,4.8,1.4,7.2,2
		c2.4,0.6,4.8,1.2,7.3,1.8C1018.8,389,1021.2,389.5,1023.7,389.9z"/>
</g>
<g>
	<path fill="#010101" d="M912.1,400.5c4.7,0.8,9.3,2,13.9,3.3c2.3,0.6,4.6,1.4,6.8,2.1c2.3,0.8,4.5,1.6,6.7,2.4
		c4.5,1.7,8.8,3.7,13.1,5.9c2.1,1.1,4.2,2.3,6.3,3.6c2,1.3,4,2.7,6,4.1c0.6,0.5,0.8,1.4,0.3,2.1c-0.4,0.6-1.2,0.7-1.8,0.4l0,0
		c-0.8-0.4-1.8-0.8-2.7-1.2c-1-0.3-1.9-0.6-2.9-0.9c-2-0.5-4-0.9-5.9-1c-2-0.1-4,0.1-5.9,0.5c-1,0.2-1.9,0.6-2.8,1
		c-0.5,0.2-0.9,0.4-1.4,0.7c-0.4,0.2-0.9,0.5-1.3,0.7c-1.7,1-3.2,2.4-4.1,4c-0.4,0.8-0.7,1.7-0.8,2.6c0,0.9,0.2,1.8,0.7,2.5
		c0.2,0.4,0.6,0.7,0.9,1c0.2,0.1,0.4,0.3,0.6,0.4l0.4,0.2l0.3,0.1c0.9,0.3,1.8,0.2,2.6-0.3c0.8-0.5,1.4-1.4,1.5-2.4
		c0-0.5,0-1-0.3-1.4c-0.3-0.4-0.7-0.7-1.2-0.9c0.5,0.1,1.1,0.3,1.4,0.7c0.4,0.4,0.6,1,0.6,1.6c0,1.1-0.5,2.3-1.4,3.1
		c-0.9,0.8-2.3,1-3.5,0.7l-0.5-0.1l-0.4-0.1c-0.3-0.1-0.6-0.2-0.8-0.4c-0.5-0.3-1-0.7-1.4-1.2c-0.8-1-1.2-2.2-1.3-3.4
		c0-1.2,0.2-2.5,0.7-3.5c1-2.2,2.8-3.8,4.6-5.1c0.5-0.3,0.9-0.6,1.4-0.9c0.5-0.3,1-0.6,1.5-0.8c1-0.5,2.1-0.9,3.2-1.2
		c2.2-0.6,4.5-0.9,6.7-0.8c2.2,0.1,4.5,0.4,6.6,1c1.1,0.3,2.1,0.6,3.2,1c1,0.4,2,0.8,3.1,1.4l-1.6,2.5c-1.8-1.4-3.8-2.7-5.7-4
		c-1-0.6-2-1.3-3-1.9c-1-0.6-2-1.2-3-1.8c-1-0.6-2.1-1.1-3.1-1.7c-1-0.5-2.1-1.1-3.1-1.6c-2.1-1-4.2-2.1-6.4-3
		c-2.2-0.9-4.3-1.9-6.5-2.8c-2.2-0.9-4.4-1.7-6.6-2.5c-2.2-0.8-4.5-1.6-6.7-2.4C916.6,401.9,914.4,401.1,912.1,400.5z"/>
</g>
<g>
	<path fill="#010101" d="M378.1,369.2v-17c0-0.5,0.7-1,1.4-1h56.4c0.9,0,1.4,0.5,1.4,1v17c0,0.7-0.3,1.2-0.9,1.4h-0.5
		c-0.2,0-0.5,0-0.7-0.3l-2.2-2h-16.3v68.5l2,2.2c0.3,0.3,0.3,0.8,0.3,1.4c-0.2,0.3-0.5,0.7-1.2,0.7h-20.4c-0.5,0-0.9-0.3-1-0.7
		c-0.2-0.5,0-1,0.2-1.4l2-2.2v-68.5h-16.3l-2,2c-0.2,0.3-0.5,0.3-0.9,0.3h-0.5C378.4,370.4,378.1,369.8,378.1,369.2z M380.3,371.9
		c0.3,0,0.7-0.3,1-0.5l0.3-0.2l4.9,4.8l-0.2,0.2c-0.7,0.5-1.4,0.3-1.9,0C383.9,375.6,380.6,372.4,380.3,371.9z M385.6,369.7l4.4,4.4
		h-1.5l-0.7,0.7l-4.8-4.9l0.2-0.2H385.6z M392.5,374.1l-4.4-4.4h2.7l4.4,4.4H392.5z M397,373.2l-3.4-3.6h2.9l0.5,0.8V373.2z
		 M398.7,442.6h0.5l4.2,4.2h-0.3l-0.5-0.5C402.1,446,399,442.9,398.7,442.6z M401.7,442.6h2.7l4.4,4.2h-2.7L401.7,442.6z
		 M414.1,446.9h-2.7l-4.2-4.2h2.5L414.1,446.9z M415.3,442.6l4.2,4.2h-2.7l-4.2-4.2H415.3z M418,442.6c0.7,0,1.2-0.3,1.9-0.9
		l4.8,4.8c-0.2,0.2-0.3,0.3-0.7,0.3h-1.7L418,442.6z M418.5,370.4l4.1,4.2v2.7l-4.1-4.4V370.4z M418.5,375.6l4.1,4.2v2.7l-4.1-4.4
		V375.6z M418.5,381.1l4.1,4.1v2.7l-4.1-4.2V381.1z M418.5,386.5l4.1,4.4v2.5l-4.1-4.4V386.5z M422.6,396.2v2.5l-4.1-4.4v-2.5
		L422.6,396.2z M418.5,397.2l4.1,4.2v2.5l-4.1-4.1V397.2z M418.5,402.5l4.1,4.4v2.7l-4.1-4.2V402.5z M418.5,407.9l4.1,4.4v2.5
		l-4.1-4.2V407.9z M418.5,413.4l4.1,4.2v2.7l-4.1-4.2V413.4z M418.5,418.6l4.1,4.4v2.7l-4.1-4.4V418.6z M418.5,424.1l3.6,3.7
		l0.5,0.7v2.7l-1.9-2l-2.2-2.4V424.1z M422.6,433.8v2.7l-4.1-4.2v-2.5L422.6,433.8z M418.5,435l4.1,4.2v2.7l-1.9-1.9
		c0.2-0.9-0.2-1.7-0.8-2.4l-1.4-1.7V435z M423.1,369.7l4.4,4.4H425l-4.4-4.4H423.1z M425.9,369.7h2.9l4.2,4.4h-2.7L425.9,369.7z
		 M435.9,372.1h0.5l2,2h-2.7l-4.2-4.4h0.9l1.7,1.7C434.5,371.9,435.2,372.1,435.9,372.1z M443,376l-4.8-4.8c0.3-0.5,0.5-1.2,0.5-2
		l4.4,4.2v1.9C443.2,375.5,443.2,375.8,443,376z M443.2,360.2l-4.4-4.4v-2.2c0.5,0.7,3.7,3.6,4.1,3.9c0.3,0.2,0.3,0.5,0.3,0.9V360.2
		z M443.2,365.4l-4.4-4.2v-2.7l4.4,4.2V365.4z M438.8,363.7l4.4,4.4v2.7l-4.4-4.4V363.7z"/>
	<path fill="#010101" d="M482.8,440.9c-0.5,0-1-0.3-1.2-0.7c-0.2-0.5-0.2-1,0.3-1.4l2-2.2v-81.3l-2-2.4c-0.5-0.2-0.5-0.9-0.3-1.2
		c0.2-0.3,0.7-0.7,1.2-0.7h48.6c0.7,0,1.2,0.5,1.2,1v17c0,0.7-0.3,1.2-0.7,1.4c-0.2,0-0.3,0-0.5,0c-0.3,0-0.7,0-0.9-0.3l-2-2H502
		v18.5h19.9l2-2.2c0.3,0,0.7-0.2,0.9-0.2s0.3,0,0.5,0.2c0.3,0,0.7,0.5,0.7,0.9v19.6c0,0.5-0.3,0.8-0.7,1.2h-0.5
		c-0.2,0-0.5-0.2-0.9-0.3l-2-1.9H502v20.1h26.5l2-2c0.2-0.3,0.5-0.5,0.9-0.5c0.2,0,0.3,0.2,0.5,0.2c0.3,0.2,0.7,0.7,0.7,1.4v16.8
		c0,0.5-0.5,1.2-1.2,1.2H482.8z M484,442.6h1l4.4,4.2h-0.7c-0.3,0-0.7-0.2-0.9-0.3L484,442.6z M492.2,446.9l-4.4-4.2h2.5l4.4,4.2
		H492.2z M497.4,446.9l-4.2-4.2h2.7l4.1,4.2H497.4z M503,446.9l-4.4-4.2h2.7l4.2,4.2H503z M508,376.5l-4.4-4.4v-2.2h0.3l4.4,4.2H508
		V376.5z M508,381.9l-4.4-4.2v-2.9l4.4,4.4V381.9z M505.8,385l-2.2-1.9v-2.7l4.4,4.2v0.3H505.8z M508,414.2l-4.4-4.2v-2.9l4.4,4.4
		V414.2z M503.5,415.4v-2.7l4.4,4.2v2.9L503.5,415.4z M505.2,422.4l-1.7-1.7v-2.5l4.2,4.2H505.2z M511,446.9h-2.7l-4.4-4.2h2.7
		L511,446.9z M507.1,405.4l4.4,4.4h-2.7l-4.4-4.4H507.1z M510.9,374.1l-4.4-4.2h2.9l4.2,4.2H510.9z M512,442.6l4.2,4.2h-2.7
		l-4.2-4.2H512z M512.6,405.4l4.2,4.4h-2.7l-4.4-4.4H512.6z M516.1,374.1l-4.1-4.2h2.6l4.4,4.2H516.1z M517.5,442.6l4.4,4.2H519
		l-4.4-4.2H517.5z M517.8,405.4l4.4,4.4h-2.9l-4.1-4.4H517.8z M521.7,374.1l-4.2-4.2h2.6l4.4,4.2H521.7z M522.8,442.6l4.4,4.2h-2.7
		l-4.4-4.2H522.8z M525.6,407.6l2,2.2h-2.9l-4.2-4.4h0.5l1.7,1.5c0.5,0.5,1.4,0.9,2,0.9C525.1,407.8,525.3,407.8,525.6,407.6z
		 M527,374.1l-4.2-4.2h2.7l4.2,4.2H527z M529.7,446.9l-4.1-4.2h2.5l4.2,4.2H529.7z M527.7,404.2l4.4,4.4v2.5l-4.9-4.6
		c0.3-0.5,0.5-1.2,0.5-1.7V404.2z M532.1,395.2l-4.4-4.2V388l4.4,4.4V395.2z M527.7,393.6l4.4,4.2v2.7l-4.4-4.3V393.6z M527.7,398.9
		l4.4,4.4v2.7l-4.4-4.4V398.9z M532.4,374.1l-2-2.2c0.2,0.2,0.7,0.2,1,0.2c0.5,0,0.7,0,1-0.2c0.2,0,0.3,0,0.3-0.2l4.9,4.8
		c-0.5,0-0.9,0-1.2-0.2l-2-2.2H532.4z M535.2,446.9l-4.2-4.2h0.5c0.7,0,1-0.2,1.7-0.5l4.8,4.8H535.2z M538.6,374.8l-4.4-4.4
		c0.2-0.3,0.2-0.7,0.2-1.2v-1.4l4.2,4.2V374.8z M534.3,437.8l4.2,4.4v2.7l-4.4-4.6c0.2-0.2,0.2-0.3,0.2-0.7V437.8z M538.6,358.6
		l-4.2-4.2v-0.8c0.5,0.7,3.6,3.7,3.9,3.9c0.3,0.2,0.3,0.5,0.3,1V358.6z M538.6,364.1l-4.2-4.2v-2.7l4.2,4.4V364.1z M538.6,369.3
		l-4.2-4.2v-2.7l4.2,4.4V369.3z M534.3,424.4v-0.5c0.3,0.3,3.7,3.6,3.9,3.9c0.3,0.2,0.3,0.7,0.3,0.8L534.3,424.4z M534.3,427.1
		l4.2,4.4v2.5l-4.2-4.2V427.1z M534.3,432.6l4.2,4.2v2.7l-4.2-4.2V432.6z"/>
	<path fill="#010101" d="M577.7,353c-0.9-0.5-0.3-1.9,0.8-1.9h28.7c8.5,0,15,2.4,19,7.3c3.6,3.9,5.3,9.9,5.3,17.2v17.2
		c0,4.8-0.8,9.2-2.5,12.6c-1.9,3.9-4.6,7-8.3,8.7l10.4,22.6l2.4,2.4c0.8,0.5,0.2,2-1,2H611c-0.7,0-1-0.3-1.2-0.8
		c-0.2-0.5-0.2-0.9,0.3-1.2l1.7-2.2l-9-19.7h-5.3v19.5l2.2,2.2c0.5,0.5,0.2,2-1,2h-20.2c-1,0-1.7-1.4-0.8-2l2-2.2v-81.3L577.7,353z
		 M581.2,442.6l4.4,4.2h-1.2c-0.3,0-0.7-0.2-0.9-0.5c-0.7-0.3-3.7-3.4-3.9-3.7H581.2z M586.5,442.6l4.4,4.2h-2.5l-4.4-4.2H586.5z
		 M591.9,442.6l4.2,4.2h-2.6l-4.4-4.2H591.9z M601.6,446.9h-2.7l-4.2-4.2h2.7L601.6,446.9z M599.8,400.3c5.4,0,8.7-0.9,10.9-2.7
		c2.2-1.7,3.1-4.4,3.1-9v-8.8c0-4.8-0.9-7.6-3.1-9.2c-2-1.7-5.3-2.4-10.9-2.4h-2.2v32.1H599.8z M603.7,376.1l-4.4-4.4v-1.9h0.8
		l4.4,4.4h-0.8V376.1z M603.7,381.4l-4.4-4.2v-2.5l4.4,4.2V381.4z M603.7,386.8l-4.4-4.2v-2.7l4.4,4.4V386.8z M603.7,392.3l-4.4-4.4
		v-2.7l4.4,4.4V392.3z M603.7,397.6l-4.4-4.1v-2.7l4.4,4.2V397.6z M599.3,398.4V396l2.5,2.4H599.3z M603.7,424.6l-4.4-4.4V419h1.4
		l2.2,2.2l1,2h-0.2V424.6z M603.7,430l-4.4-4.2v-2.7l4.4,4.1V430z M603.7,435.5l-4.4-4.4v-2.5l4.4,4.4V435.5z M601,437.7l-1.7-1.7
		v-2.2l4.4,4.4v2.5l-2-1.9C601.6,438.4,601.3,438,601,437.7z M605.9,445.8c0,0.5-0.3,1-1,1h-0.3l-4.6-4.4c0.5-0.2,1.2-0.7,1.5-1.2
		L605.9,445.8z M607.2,374.3l-4.4-4.2c1.2,0,2.4,0.2,3.1,0.3l4.1,4.1C608.9,374.3,608.3,374.3,607.2,374.3z M613.5,442.6l4.4,4.4h-1
		c-0.3,0-0.9-0.2-0.9-0.5c-0.7-0.5-3.7-3.6-4.1-3.9H613.5z M620.7,447l-4.4-4.4h2.7l4.4,4.4H620.7z M626.1,447l-4.4-4.4h2.9l4.1,4.4
		H626.1z M623.4,414.6l4.6,4.9l-1.4,0.7l0.7,1l-2.7-2.5l-1.7-3.7L623.4,414.6z M626.3,412.2l4.8,4.8l-1.4,1.4l-4.9-4.8L626.3,412.2z
		 M629.3,428.7l-2.4-4.9l2.5,2.6l2.4,5.1L629.3,428.7z M634.1,447h-2.7l-4.2-4.4h2.7L634.1,447z M628.7,409.3l4.9,4.8
		c-0.3,0.5-0.8,1-1.4,1.5l-4.6-4.8C627.8,410.3,628.3,409.8,628.7,409.3z M630.7,405.9l4.6,4.6l-0.9,2l-4.8-4.9
		c0.3-0.5,0.7-0.7,0.9-1.4C630.7,406.2,630.7,406.1,630.7,405.9z M636,370.7l-3.6-3.6c-0.3-1.4-0.7-2.5-1.4-3.9l1.5,1.5
		c0.8,0.7,1.4,1.5,1.7,2.5C635,368.3,635.5,369.5,636,370.7z M636.8,406.6l-0.7,2l-4.8-4.8c0.3-0.5,0.5-1.4,0.7-2L636.8,406.6z
		 M635.3,440.2c0.2-0.9-0.2-1.7-0.7-2.5l-2-1.9l-0.9-2l2.5,2.4l2.2,5.3L635.3,440.2z M634.4,441.9l4.9,4.8c-0.3,0.2-0.5,0.3-0.9,0.3
		h-1.7l-4.4-4.4C633.3,442.6,633.9,442.4,634.4,441.9z M633.1,397.4l4.4,4.4c0,0.8-0.2,1.7-0.2,2.4l-4.8-4.6L633.1,397.4z
		 M637.5,377.7l-2.2-2.4l-2-1.9c0-1.2-0.2-2-0.2-2.9l3.9,3.9L637.5,377.7z M633.4,392.3l4.2,4.4v2c0,0.2-0.2,0.3-0.2,0.7l-4.2-4.6
		c0.2-0.7,0.2-1.2,0.2-2V392.3z M637.5,380.6c0,0.2,0.2,0.7,0.2,1v1.5l-4.2-4.2v-2.7l0.5,0.7L637.5,380.6z M637.7,388.4l-4.2-4.1
		v-2.9l4.2,4.4V388.4z M633.4,386.8l4.2,4.2v2.9l-4.2-4.4V386.8z"/>
	<path fill="#010101" d="M678.8,353c-0.8-0.5-0.3-1.9,0.9-1.9h28.7c8.5,0,15,2.4,19,7.3c3.6,3.9,5.3,9.9,5.3,17.2v17.2
		c0,4.8-0.8,9.2-2.5,12.6c-1.9,3.9-4.6,7-8.3,8.7l10.4,22.6l2.4,2.4c0.8,0.5,0.2,2-1,2h-21.4c-0.7,0-1-0.3-1.2-0.8
		c-0.2-0.5-0.2-0.9,0.3-1.2l1.7-2.2l-9-19.7h-5.3v19.5l2.2,2.2c0.5,0.5,0.2,2-1,2h-20.2c-1,0-1.7-1.4-0.9-2l2-2.2v-81.3L678.8,353z
		 M682.4,442.6l4.4,4.2h-1.2c-0.3,0-0.7-0.2-0.8-0.5c-0.7-0.3-3.7-3.4-3.9-3.7H682.4z M687.7,442.6l4.4,4.2h-2.5l-4.4-4.2H687.7z
		 M693.1,442.6l4.2,4.2h-2.5l-4.4-4.2H693.1z M702.8,446.9h-2.7l-4.2-4.2h2.7L702.8,446.9z M700.9,400.3c5.4,0,8.7-0.9,10.9-2.7
		c2.2-1.7,3.1-4.4,3.1-9v-8.8c0-4.8-0.8-7.6-3.1-9.2c-2-1.7-5.3-2.4-10.9-2.4h-2.2v32.1H700.9z M704.8,376.1l-4.4-4.4v-1.9h0.9
		l4.4,4.4h-0.9V376.1z M704.8,381.4l-4.4-4.2v-2.5l4.4,4.2V381.4z M704.8,386.8l-4.4-4.2v-2.7l4.4,4.4V386.8z M704.8,392.3l-4.4-4.4
		v-2.7l4.4,4.4V392.3z M704.8,397.6l-4.4-4.1v-2.7l4.4,4.2V397.6z M700.4,398.4V396l2.5,2.4H700.4z M704.8,424.6l-4.4-4.4V419h1.4
		l2.2,2.2l1,2h-0.2V424.6z M704.8,430l-4.4-4.2v-2.7l4.4,4.1V430z M704.8,435.5l-4.4-4.4v-2.5l4.4,4.4V435.5z M702.1,437.7l-1.7-1.7
		v-2.2l4.4,4.4v2.5l-2-1.9C702.8,438.4,702.4,438,702.1,437.7z M707,445.8c0,0.5-0.3,1-1,1h-0.3l-4.6-4.4c0.5-0.2,1.2-0.7,1.5-1.2
		L707,445.8z M708.4,374.3L704,370c1.2,0,2.4,0.2,3.1,0.3l4.1,4.1C710.1,374.3,709.4,374.3,708.4,374.3z M714.7,442.6l4.4,4.4h-1
		c-0.3,0-0.8-0.2-0.8-0.5c-0.7-0.5-3.7-3.6-4.1-3.9H714.7z M721.8,447l-4.4-4.4h2.7l4.4,4.4H721.8z M727.3,447l-4.4-4.4h2.9l4.1,4.4
		H727.3z M724.5,414.6l4.6,4.9l-1.4,0.7l0.7,1l-2.7-2.5l-1.7-3.7L724.5,414.6z M727.4,412.2l4.8,4.8l-1.4,1.4l-4.9-4.8L727.4,412.2z
		 M730.5,428.7l-2.4-4.9l2.5,2.6l2.4,5.1L730.5,428.7z M735.3,447h-2.7l-4.2-4.4h2.7L735.3,447z M729.8,409.3l4.9,4.8
		c-0.3,0.5-0.8,1-1.4,1.5l-4.6-4.8C729,410.3,729.5,409.8,729.8,409.3z M731.9,405.9l4.6,4.6l-0.9,2l-4.8-4.9
		c0.3-0.5,0.7-0.7,0.9-1.4C731.9,406.2,731.9,406.1,731.9,405.9z M737.1,370.7l-3.6-3.6c-0.3-1.4-0.7-2.5-1.4-3.9l1.5,1.5
		c0.8,0.7,1.4,1.5,1.7,2.5C736.1,368.3,736.6,369.5,737.1,370.7z M738,406.6l-0.7,2l-4.8-4.8c0.3-0.5,0.5-1.4,0.7-2L738,406.6z
		 M736.4,440.2c0.2-0.9-0.2-1.7-0.7-2.5l-2-1.9l-0.9-2l2.5,2.4l2.2,5.3L736.4,440.2z M735.6,441.9l4.9,4.8c-0.3,0.2-0.5,0.3-0.9,0.3
		H738l-4.4-4.4C734.4,442.6,735.1,442.4,735.6,441.9z M734.2,397.4l4.4,4.4c0,0.8-0.2,1.7-0.2,2.4l-4.8-4.6L734.2,397.4z
		 M738.7,377.7l-2.2-2.4l-2-1.9c0-1.2-0.2-2-0.2-2.9l3.9,3.9L738.7,377.7z M734.6,392.3l4.2,4.4v2c0,0.2-0.2,0.3-0.2,0.7l-4.2-4.6
		c0.2-0.7,0.2-1.2,0.2-2V392.3z M738.7,380.6c0,0.2,0.2,0.7,0.2,1v1.5l-4.2-4.2v-2.7l0.5,0.7L738.7,380.6z M738.8,388.4l-4.2-4.1
		v-2.9l4.2,4.4V388.4z M734.6,386.8l4.2,4.2v2.9l-4.2-4.4V386.8z"/>
	<path fill="#010101" d="M779.6,440.2c-0.2-0.5-0.2-0.9,0.3-1.4l2-2.2l21.9-81.4l-1.4-2.2c-0.2-0.5-0.2-0.9-0.2-1.4
		c0.3-0.2,0.8-0.5,1.4-0.5H825c0.5,0,0.8,0.3,1,0.5c0.2,0.5,0.2,0.9,0,1.4l-1.5,2.2l21.9,81.4l2.4,2.2c0.2,0.5,0.3,0.8,0.2,1.4
		c-0.2,0.3-0.7,0.7-1.2,0.7h-20.6c-0.3,0-0.7-0.3-0.8-0.7c-0.2-0.5-0.2-0.9,0.2-1.4l2-2l-4.4-15.8h-19.9l-4.2,15.8l2,2
		c0.3,0.5,0.3,0.8,0.3,1.4c-0.3,0.3-0.9,0.7-1.4,0.7h-20.2C780.3,440.9,779.8,440.6,779.6,440.2z M782,442.6h1l4.2,4.2h-0.5
		c-0.3,0-0.7-0.2-0.8-0.3L782,442.6z M790,446.9l-4.4-4.2h2.7l4.2,4.2H790z M795.3,446.9l-4.2-4.2h2.7l4.2,4.2H795.3z M800.9,446.9
		l-4.4-4.2h2.7l4.4,4.2H800.9z M806.1,446.9l-4.4-4.2c0.7-0.2,1.4-0.5,1.7-1l4.8,4.6c-0.2,0.5-0.7,0.7-1,0.7H806.1z M803.3,437.7
		l-1.4-1.5l0.3-1.2l4.6,4.6l-0.5,2.2l-2.2-2.4C803.9,438.9,803.8,438.2,803.3,437.7z M807.5,437.3l-4.8-4.4l0.7-2.2l4.6,4.8
		L807.5,437.3z M808.5,433.1l-4.6-4.4l0.5-2.2l4.8,4.6L808.5,433.1z M809.7,429l-4.6-4.8l0.3-1.4h0.7l4.4,4.1h-0.3L809.7,429z
		 M819.9,404l-5.8-20.4l-5.4,20.4H819.9z M813.1,427l-4.2-4.1h2.5l4.4,4.1H813.1z M812.9,402.5h-2l0.3-1.5L812.9,402.5z
		 M815.5,402.5l-3.6-3.6l0.7-2.2l4.6,4.6l-0.2,1.2H815.5z M816.5,397.9l-3.4-3.4l0.7-2l1.7,1.7L816.5,397.9z M814.3,390.6l-0.2-0.2
		v-0.2L814.3,390.6z M817,422.9l4.2,4.1h-2.7l-4.4-4.1H817z M824,427l-4.2-4.1h2.5l1,0.7l0.9,3.4H824z M831.6,359.3l-4.8-4.8
		l0.5-0.7c0-0.2,0.2-0.3,0.2-0.7l4.1,4.2c0.7,0.3,0.7,1.2,0.3,1.4L831.6,359.3z M827.9,360.8l-1-3.6l3.7,3.7v0.2l0.8,3.4
		L827.9,360.8z M831.5,442.6l4.4,4.2H833l-4.2-4.2H831.5z M832.7,368.3l0.7,3.6l-3.2-3.6h-0.2l-1-3.6L832.7,368.3z M830.8,371.9
		l3.6,3.6l1.2,3.7l-3.7-3.6L830.8,371.9z M833,379.2l3.6,3.7l0.9,3.6l-3.6-3.6L833,379.2z M836.7,442.6l4.4,4.2h-2.5l-4.4-4.2H836.7
		z M834.9,386.7l3.6,3.7l1,3.6l-3.6-3.6L834.9,386.7z M836.7,394.2l3.6,3.6l1.2,3.6l-3.7-3.6L836.7,394.2z M838.8,401.3l3.7,3.7
		l0.8,3.7l-3.6-3.6L838.8,401.3z M842.4,442.6l4.1,4.2h-2.5l-4.2-4.2H842.4z M840.7,408.8l3.7,3.7l1,3.6l-3.7-3.6L840.7,408.8z
		 M842.9,416.3l3.4,3.7l1.2,3.4l-3.7-3.4L842.9,416.3z M844.7,423.4l3.7,3.7l0.8,3.7l-3.6-3.7L844.7,423.4z M847.6,442.6l4.2,4.2
		h-2.5l-4.4-4.2H847.6z M846.6,430.9l3.7,3.6l1,3.7l-3.7-3.6L846.6,430.9z M850.5,440.2l1.9,1.7l0.2,0.7l2.2,2.2
		c0.5,0.7,0.3,1.4-0.2,1.9l-4.9-4.8c0.3-0.2,0.7-0.5,0.7-1C850.5,440.6,850.5,440.4,850.5,440.2z"/>
</g>
<g>
	<path fill="#010101" d="M507.7,283.3c-0.5-0.1-0.5-0.7,0-1l15.5-6.7c3.9-1.7,7.4-1.9,10.3-0.6c2.6,1.1,4.6,3.6,6.1,7.1l6.6,15.4
		c1.6,3.7,1.8,7,0.7,9.8c-1.1,2.9-3.6,5.1-7.2,6.6l-15.5,6.7c-0.4,0.2-0.9-0.2-0.7-0.7l0.5-1.3l-15-34.7L507.7,283.3z M519.1,286
		l10.3,23.8l5.2-2.3c1.9-0.8,3.2-2,3.7-3.5c0.6-1.5,0.4-3.2-0.4-5l-5.1-11.9c-0.9-2.1-2-3.4-3.4-3.9c-1.4-0.6-3-0.4-5.1,0.5
		L519.1,286z"/>
	<path fill="#010101" d="M575.2,301.7l0.8-1.1l5.9-38.7l-0.7-0.9c-0.3-0.4-0.2-0.9,0.5-0.9l9.8-1.1c0.5-0.1,0.7,0.4,0.6,0.8
		l-0.6,1.1l14.4,36.4l1.2,0.9c0.2,0.3,0.2,0.9-0.4,1l-9.5,1.1c-0.4,0-0.7-0.5-0.4-0.9l0.8-1l-2.9-7.1l-9.2,1l-1.1,7.5l1,0.8
		c0.2,0.3,0.3,0.9-0.4,1l-9.3,1.1C575.3,302.7,574.9,302.2,575.2,301.7z M591.9,283.6l-3.7-9.2l-1.4,9.8L591.9,283.6z"/>
	<path fill="#010101" d="M633.2,267.1l1.2-7.8c0-0.2,0.4-0.4,0.7-0.4l25.9,4c0.4,0.1,0.6,0.3,0.6,0.6l-1.2,7.8
		c-0.1,0.5-0.7,0.7-1,0.3l-0.9-1.1l-7.5-1.2l-4.8,31.5l0.8,1.2c0.4,0.3,0,1-0.5,0.9l-9.4-1.4c-0.5-0.1-0.6-0.7-0.2-1l1.1-0.9
		l4.8-31.5l-7.5-1.2l-1.1,0.8C633.9,268,633.2,267.5,633.2,267.1z"/>
	<path fill="#010101" d="M676,309.2l1.3-0.5l24.8-30.4l-0.2-1.2c-0.1-0.5,0.3-0.8,0.9-0.6l9,4c0.4,0.2,0.4,0.7,0.1,1l-1.1,0.6
		l-6.2,38.7l0.6,1.4c0,0.4-0.3,0.9-0.8,0.7l-8.7-3.9c-0.4-0.2-0.3-0.8,0.1-1l1.3-0.5l1.1-7.5l-8.4-3.8l-4.8,5.9l0.5,1.3
		c0,0.4-0.2,0.9-0.8,0.7l-8.6-3.8C675.5,310,675.4,309.4,676,309.2z M699.5,302.1l1.5-9.8l-6.2,7.7L699.5,302.1z"/>
</g>
<g>
	<path fill="#010101" d="M516.1,475.3l-0.4-1.3c-0.2-0.4,0.2-0.8,0.7-0.6l7.1,3.4c0.2,0.1,0.3,0.3,0.3,0.5l-0.7,20.8l7.5-15.8
		l-0.4-1.3c-0.1-0.4,0.3-0.8,0.7-0.6l8,3.8c0.4,0.2,0.4,0.8,0,0.9l-1.2,0.6l-15.2,31.9l0.4,1.2c0.2,0.4-0.2,0.9-0.7,0.6l-8-3.8
		c-0.4-0.2-0.3-0.8,0-1l0.8-0.3l0.5-19.9l-7.7,16.2l0.5,1.3c0.1,0.3-0.3,0.8-0.8,0.6l-8-3.8c-0.4-0.2-0.4-0.9,0-1l1.2-0.5
		L516.1,475.3z"/>
	<path fill="#010101" d="M562.8,531.8c-0.4-0.1-0.6-0.7-0.2-0.9l1-0.8l6-34.9l-0.7-1.2c-0.3-0.3,0-0.8,0.5-0.7l20.9,3.6
		c0.3,0.1,0.5,0.3,0.4,0.5l-1.2,7.3c-0.1,0.4-0.7,0.8-1,0.3l-0.7-1l-11.4-1.9l-1.4,8l8.5,1.5l1-0.8c0.4,0,0.9,0.1,0.8,0.5l-1.4,8.4
		c-0.1,0.4-0.6,0.5-0.9,0.2l-0.7-1l-8.5-1.5l-1.5,8.6l11.4,1.9l1-0.7c0.3-0.4,0.9,0.1,0.8,0.6l-1.2,7.2c0,0.2-0.3,0.5-0.6,0.4
		L562.8,531.8z"/>
	<path fill="#010101" d="M627,535l-4.2-35.1l-1-0.9c-0.4-0.2-0.2-0.8,0.3-0.9l7.9-1c0.1,0,0.3,0,0.4,0.2l8.6,9.1l5.6-10.8
		c0.1-0.2,0.2-0.2,0.3-0.3l7.9-1c0.4-0.1,0.8,0.4,0.5,0.8l-0.8,1.1l4.2,35.1l1,0.8c0.3,0.3,0.3,0.9-0.3,0.9l-8.8,1.1
		c-0.4,0.1-0.7-0.5-0.5-0.8l0.8-1.1l-2.8-23.4l-5.6,10.4c-0.1,0.3-0.4,0.4-0.8,0.1l-0.1-0.1l-7.7-7.6l2.7,22.5l1.1,0.8
		c0.2,0.2,0.2,0.9-0.3,0.9l-8.7,1c-0.4,0.1-0.8-0.5-0.5-0.8L627,535z"/>
	<path fill="#010101" d="M700.2,517.3c-2.3-1.1-4.4-3.2-6-6.9l-6.4-14.2c-1.6-3.6-1.9-6.5-1.1-9.1c1.1-3.1,3.8-5.5,8.6-7.7
		c4.7-2.1,8.4-2.5,11.4-1.2c2.4,1,4.3,3.3,5.9,6.8l6.4,14.2c1.7,3.7,2.1,6.6,1.2,9.1c-1.1,3.1-3.8,5.6-8.5,7.7
		C706.8,518.2,703.2,518.6,700.2,517.3z M698.7,486.5l-0.7,0.3c-1.8,0.8-2.8,1.8-3.1,3.2c-0.3,1.4,0.1,2.9,0.9,4.7l4.8,10.7
		c2.1,4.7,5.1,4.6,7.4,3.6l0.7-0.3c1.8-0.8,2.8-1.8,3.1-3.3c0.2-1.3-0.1-2.9-0.9-4.6l-4.8-10.7C703.9,485.3,700.9,485.5,698.7,486.5
		z"/>
</g>
<g>
	<g>
		<path fill="#010101" d="M548,605.5"/>
	</g>
</g>
<g>
	<g>
		<path fill="#010101" d="M517.5,622.3c-11.1-2.2-28.4-10.2-48.5-19.5c-27.5-12.7-61.8-28.6-92-34.6l0.2-1
			c30.3,6,64.6,21.9,92.2,34.7c20,9.2,37.2,17.2,48.2,19.4L517.5,622.3z"/>
	</g>
</g>
<g>
	<g>
		<path fill="#010101" d="M375,534.7"/>
	</g>
</g>
<g>
	<g>
		<path fill="#010101" d="M204.7,481"/>
	</g>
</g>
<g>
	<g>
		<path fill="#010101" d="M294,504.5"/>
	</g>
</g>
<g>
	<g>
		<path fill="#010101" d="M526,658.3c-0.3,0-0.6-0.2-0.7-0.5c-0.1-0.2-6.4-19.3-18.4-27.1c-9.4-6.1-25.2-9.6-32.7-4.8
			c-3.2,2.1-4.6,5.5-3.9,10.1c0.5,3.3,2.1,5.5,4.6,6.1c2.5,0.6,5.6-0.5,7.1-2.6c0.7-1,1.3-2.7-0.1-4.8c-0.2-0.3-0.1-0.8,0.2-1
			c0.3-0.2,0.8-0.1,1,0.2c1.4,2.1,1.4,4.5,0,6.5c-1.8,2.6-5.5,3.9-8.6,3.2c-1.8-0.4-5-2-5.8-7.4c-0.7-5.2,0.9-9.2,4.6-11.6
			c8.1-5.2,24.3-1.7,34.3,4.8c8.8,5.7,14.6,17,17.3,23.3c-3.7-40.1-34.1-68.8-34.5-69.1c-0.3-0.3-0.3-0.8,0-1.1
			c0.3-0.3,0.8-0.3,1.1,0c0.3,0.3,33.7,31.8,35.2,75.1c0,0.4-0.3,0.7-0.6,0.8C526.1,658.3,526,658.3,526,658.3z"/>
	</g>
</g>
<g>
	<g>
		<path fill="#010101" d="M571.5,599.5"/>
	</g>
</g>
<g>
	<g>
		<path fill="#010101" d="M570,680c0,0,1.1,0.7,3,1.7c1,0.5,2.1,1.1,3.5,1.7c1.4,0.6,2.9,1.3,4.6,2c1.7,0.6,3.6,1.3,5.6,1.9
			c2,0.6,4.1,1.1,6.4,1.6c2.2,0.5,4.5,0.8,6.9,1c2.4,0.2,4.8,0.4,7.2,0.3c2.4,0,4.8-0.2,7.2-0.5c1.2-0.1,2.3-0.3,3.5-0.5
			c1.2-0.2,2.3-0.4,3.4-0.7c2.2-0.5,4.3-1,6.3-1.7c1-0.3,2-0.6,2.9-1c0.9-0.3,1.9-0.6,2.7-1c1.7-0.7,3.3-1.3,4.7-1.9
			c1.4-0.6,2.6-1.1,3.6-1.6c2-1,3.1-1.5,3.1-1.5s-1,0.8-2.7,2.1c-0.9,0.7-2,1.4-3.3,2.3c-1.3,0.9-2.8,1.7-4.4,2.7
			c-0.8,0.5-1.7,0.9-2.6,1.3c-0.9,0.5-1.9,0.9-2.9,1.3c-1,0.4-2,0.9-3.1,1.2c-1.1,0.4-2.2,0.7-3.4,1.1c-1.2,0.3-2.3,0.6-3.5,0.9
			c-1.2,0.2-2.4,0.5-3.7,0.7c-2.5,0.4-5.1,0.6-7.6,0.6c-2.6,0.1-5.1-0.1-7.7-0.4c-2.5-0.3-4.9-0.8-7.3-1.5c-2.3-0.6-4.5-1.4-6.5-2.2
			c-2-0.8-3.9-1.7-5.6-2.6c-3.3-1.8-5.9-3.7-7.6-5.1C570.8,680.9,570,680,570,680z"/>
	</g>
</g>
<g>
	<g>
		<path fill="#010101" d="M575.3,598c0,0-0.1,0.4-0.4,1c-0.3,0.6-0.9,1.5-1.7,2.5c-0.9,1-2.1,2.1-3.6,3.1c-1.5,1.1-3.4,2-5.6,2.8
			c-2.2,0.8-4.6,1.4-7.2,1.7c-2.6,0.4-5.3,0.5-8.2,0.4c-2.8-0.1-5.7-0.3-8.7-0.7c-2.8-0.4-5.9-1-8.8-1.7c-2.9-0.7-5.8-1.6-8.6-2.6
			c-2.8-1-5.4-2.1-8-3.3c-2.5-1.2-4.9-2.5-7.1-3.8c-2.2-1.3-4.2-2.7-6-4.1c-3.6-2.7-6.3-5.3-8-7.2c-1.8-1.9-2.6-3.1-2.6-3.1
			s1.1,1,3.1,2.5c2,1.6,5,3.6,8.8,5.9c1.9,1.1,3.9,2.2,6.2,3.4c2.2,1.1,4.6,2.2,7.1,3.2c2.5,1.1,5.1,2,7.8,2.9
			c2.7,0.9,5.5,1.7,8.3,2.3c2.8,0.7,5.5,1.3,8.4,1.7c2.8,0.4,5.5,0.8,8.2,1c2.7,0.2,5.3,0.2,7.7,0.1c2.4-0.2,4.7-0.5,6.8-0.9
			c2.1-0.5,3.9-1.1,5.5-1.9c1.6-0.8,2.8-1.6,3.8-2.4c1-0.8,1.7-1.5,2.1-2.1C575.1,598.3,575.3,598,575.3,598z"/>
	</g>
</g>
<g>
	<g>
		<path fill="#010101" d="M294,504.5c0,0-0.2,0.6-0.8,1.8c-0.5,1.1-1.3,2.8-2.5,4.8c-2.3,4-6.1,9.7-11.9,15.4
			c-2.9,2.9-6.3,5.7-10.2,8.3c-3.9,2.6-8.3,4.9-13.2,6.6c-4.8,1.7-10.1,2.9-15.4,3.4c-5.4,0.5-10.9,0.3-16.3-0.4
			c-5.4-0.8-10.8-2.1-15.8-4.4c-5-2.3-9.5-5.6-12.8-9.7c-3.4-4.1-5.4-9-6.1-13.8c-0.8-4.8-0.2-9.4,0.8-13.3c1.1-4,2.7-7.4,4.4-10.2
			c1.7-2.8,3.5-5.1,5.1-6.8c0.8-0.9,1.5-1.6,2.2-2.3c0.6-0.7,1.2-1.2,1.7-1.6c0.9-0.8,1.4-1.3,1.4-1.3s-0.4,0.5-1.3,1.4
			c-0.4,0.5-0.9,1-1.5,1.7c-0.6,0.7-1.2,1.5-1.9,2.4c-0.3,0.5-0.7,1-1.1,1.5c-0.3,0.5-0.7,1.1-1.1,1.7c-0.4,0.6-0.7,1.2-1.1,1.9
			c-0.4,0.7-0.8,1.3-1.1,2c-1.4,2.8-2.8,6.2-3.5,10c-0.2,1-0.4,1.9-0.5,2.9c0,0.5-0.1,1-0.2,1.5c0,0.5,0,1-0.1,1.5c0,0.5,0,1,0,1.6
			c0,0.5,0,1,0.1,1.6c0.1,1,0.2,2.1,0.5,3.2c0.4,2.1,1.1,4.2,2.1,6.3c1,2,2.3,4,3.8,5.7c1.5,1.8,3.3,3.4,5.3,4.8l1.5,1
			c0.5,0.3,1.1,0.6,1.6,0.9c1,0.6,2.2,1.1,3.3,1.7c4.6,2.1,9.6,3.3,14.7,4c5.1,0.7,10.4,1,15.4,0.6c5.1-0.4,10-1.3,14.6-2.9
			c4.6-1.5,8.9-3.5,12.7-5.8c3.8-2.3,7.2-4.9,10.2-7.5c5.9-5.2,10.1-10.4,12.8-14.2C292.8,506.9,294,504.5,294,504.5z"/>
	</g>
</g>
<g>
	<g>
		<path fill="#010101" d="M375.5,545.4"/>
	</g>
</g>
<g>
	<g>
		<path fill="#010101" d="M204.7,481"/>
	</g>
</g>
<g>
	<g>
		<path fill="#010101" d="M200.4,485.5c0,0,0.6-0.7,1.6-1.9c1.1-1.2,2.7-3,5-5.1c2.3-2.1,5.3-4.4,8.9-6.7c3.7-2.3,8-4.6,13-6.5
			c5-1.9,10.6-3.5,16.7-4.6c6-1.1,12.5-1.7,19.2-1.7c6.7-0.1,13.6,0.4,20.5,1.3c6.9,1,13.9,2.4,20.8,4.4c3.4,1,6.8,2.1,10.2,3.4
			c0.8,0.3,1.6,0.6,2.5,1l2.4,1l2.5,1.1l2.4,1.2c6.3,3.3,12.1,7.2,17.2,11.5c5.2,4.3,9.7,8.9,13.6,13.7c2,2.4,3.7,4.8,5.4,7.1
			c1.6,2.4,3.1,4.8,4.4,7.1c2.6,4.7,4.6,9.2,6,13.2c1.5,4.1,2.4,7.7,3,10.8c0.6,3,0.9,5.4,1,7.1c0.1,1.6,0.2,2.5,0.2,2.5
			s-0.2-0.9-0.5-2.5c-0.3-1.6-0.9-4-1.7-6.9c-0.9-2.9-2.1-6.4-3.8-10.3c-0.8-1.9-1.8-4-3-6c-0.5-1.1-1.2-2.1-1.8-3.2
			c-0.6-1.1-1.3-2.2-2-3.2c-1.4-2.2-2.9-4.4-4.6-6.6c-1.7-2.2-3.5-4.5-5.5-6.7c-2-2.2-4.1-4.4-6.4-6.5c-2.2-2.1-4.6-4.2-7.2-6.2
			c-5-4-10.7-7.6-16.6-10.7l-2.3-1.1l-2.3-1l-2.4-1c-0.7-0.3-1.6-0.6-2.4-0.9c-3.2-1.2-6.5-2.2-9.8-3.2c-6.6-1.9-13.4-3.4-20.1-4.4
			c-6.7-1-13.4-1.6-19.9-1.7c-6.5-0.1-12.7,0.2-18.6,1c-5.9,0.8-11.4,2-16.3,3.6c-4.9,1.6-9.3,3.5-13,5.4c-3.7,2-6.8,4-9.3,5.9
			c-2.4,1.8-4.3,3.4-5.5,4.5C201.1,484.9,200.4,485.5,200.4,485.5z"/>
	</g>
</g>
<g>
	<g>
		<path fill="#010101" d="M375,534.7c0,0,0.2,0.7,0.5,2c0.3,1.3,0.9,3.2,1.3,5.7c0.1,0.6,0.2,1.3,0.4,2c0.1,0.7,0.2,1.4,0.3,2.2
			c0.2,1.5,0.5,3.1,0.6,4.9c0.4,3.5,0.4,7.5,0.2,11.9c-0.3,4.3-1,9-2.4,13.9c-1.4,4.8-3.4,9.8-6.5,14.4c-3,4.6-7,8.9-12.1,11.8
			c-2.5,1.5-5.3,2.6-8.3,3c-3,0.4-6.2,0.1-9-1.1c-2.8-1.2-5.2-3.3-7-5.7c-0.4-0.6-0.8-1.2-1.2-1.9c-0.2-0.3-0.4-0.7-0.5-1l-0.4-1.1
			c-0.3-0.7-0.4-1.5-0.6-2.2c-0.1-0.7-0.2-1.5-0.3-2.3c-0.1-3,0.7-6,2-8.6c1.4-2.6,3.3-4.8,5.3-6.6c4.2-3.7,9.2-5.9,14-7.3
			c4.8-1.4,9.6-1.9,13.9-2c4.4-0.1,8.3,0.2,11.8,0.8c1.7,0.3,3.4,0.6,4.9,0.9c1.5,0.4,2.9,0.6,4.1,1c1.2,0.3,2.3,0.6,3.2,0.9
			c0.9,0.3,1.7,0.6,2.4,0.8c1.3,0.4,2,0.7,2,0.7s-0.7-0.2-2-0.5c-0.7-0.2-1.5-0.4-2.4-0.7c-1-0.2-2-0.5-3.3-0.8
			c-1.2-0.3-2.6-0.5-4.1-0.8c-1.5-0.3-3.1-0.5-4.9-0.7c-3.5-0.4-7.4-0.6-11.7-0.4c-4.3,0.2-8.9,0.9-13.6,2.3
			c-4.6,1.5-9.3,3.8-13.3,7.2c-2,1.7-3.7,3.8-4.9,6.1c-1.2,2.3-1.9,5-1.8,7.6c0.1,0.7,0.1,1.3,0.3,2c0.2,0.6,0.3,1.3,0.6,1.9
			l0.4,0.9c0.1,0.3,0.3,0.6,0.5,0.9c0.3,0.6,0.7,1.2,1.1,1.7c1.6,2.1,3.7,4,6.2,5c2.5,1.1,5.2,1.4,7.9,1c2.7-0.4,5.3-1.4,7.7-2.7
			c4.8-2.7,8.6-6.8,11.6-11.2c3-4.4,5.1-9.2,6.6-13.8c1.5-4.7,2.3-9.3,2.7-13.5c0.1-1.1,0.1-2.1,0.2-3.1c0-0.5,0.1-1,0.1-1.5
			c0-0.5,0-1,0-1.5c0-1,0-1.9,0-2.9c0-0.9-0.1-1.8-0.1-2.7c0-1.8-0.2-3.4-0.4-4.9c-0.1-0.8-0.1-1.5-0.2-2.2c-0.1-0.7-0.2-1.3-0.3-2
			c-0.2-1.2-0.3-2.4-0.5-3.3c-0.2-1-0.4-1.8-0.5-2.4C375.1,535.4,375,534.7,375,534.7z"/>
	</g>
</g>
<g>
	<g>
		<path fill="#010101" d="M508.1,619.1c0,0,0.6,0.2,1.7,0.5c1.1,0.3,2.7,0.7,4.7,1.2c4,1,9.9,2.3,17,3.1c3.5,0.4,7.4,0.7,11.5,0.7
			c4.1,0,8.3-0.3,12.7-1c4.3-0.7,8.7-1.9,12.9-3.8c4.1-1.9,8.1-4.4,11.2-7.7c3.1-3.3,5.3-7.4,5.9-11.7c0.3-2.2,0.1-4.3-0.4-6.3
			c-0.6-2-1.7-3.7-3.1-5c-1.5-1.3-3.3-2.2-5.2-2.7c-1.9-0.5-3.9-0.6-5.9-0.5c-3.9,0.2-7.5,1.5-10.5,3.2c-3,1.7-5.4,3.9-7.2,6.1
			c-1.8,2.2-2.9,4.5-3.7,6.4c-0.7,1.9-1.1,3.5-1.3,4.6c-0.1,0.5-0.2,1-0.2,1.3c0,0.3-0.1,0.4-0.1,0.4s0-0.1,0-0.4
			c0-0.3,0-0.7,0.1-1.3c0.1-1.1,0.3-2.8,0.8-4.8c0.6-2,1.6-4.5,3.3-7c1.7-2.5,4.1-5,7.2-7c3.1-2,7-3.6,11.3-4
			c2.2-0.2,4.4-0.2,6.7,0.4c2.3,0.5,4.6,1.5,6.5,3.1c1.9,1.6,3.3,3.9,4.1,6.3c0.2,0.6,0.3,1.3,0.4,1.8c0.1,0.7,0.2,1.3,0.2,1.9
			c0.1,1.3,0.1,2.5-0.1,3.8c-0.6,5.1-3.2,9.8-6.7,13.4c-3.5,3.6-7.8,6.4-12.2,8.2c-4.5,1.9-9.1,3.1-13.6,3.7
			c-9.1,1.3-17.6,0.6-24.7-0.5c-3.6-0.6-6.8-1.3-9.6-2.1c-2.8-0.7-5.3-1.5-7.3-2.1c-2-0.6-3.5-1.2-4.6-1.6
			C508.7,619.3,508.1,619.1,508.1,619.1z"/>
	</g>
</g>
<g>
	<g>
		<path fill="#010101" d="M575.6,597c0-1.8-1.4-3.2-3.2-3.2c-1.8,0-3.2,1.4-3.2,3.2c0,1.5,1.1,2.8,2.5,3.1c0,0.5-0.3,1.6-1.5,2.3
			c-1.8,1.2-5.2,4.4-4.4,4.1c2.6-1,6-3,7.6-4.9C574.3,600.9,575.6,599.4,575.6,597z"/>
	</g>
</g>
<g>
	<g>
		<path fill="#010101" d="M484.2,636.9c-0.2-2-1.1-5.2-2.8-6.3c-1.2-0.8-2.9-0.5-3.7,0.7c-0.8,1.2-0.5,2.9,0.7,3.7
			c1.1,0.7,2.5,0.6,3.4-0.3c0.4,0.3,1,1.3,1,2.6"/>
	</g>
</g>
<g>
	<g>
		<path fill="#010101" d="M668,605.5"/>
	</g>
</g>
<g>
	<g>
		<path fill="#010101" d="M698.5,622.3l-0.2-1c11-2.2,28.3-10.2,48.2-19.4c27.6-12.8,61.9-28.7,92.2-34.7l0.2,1
			c-30.2,6-64.4,21.8-92,34.6C726.9,612.1,709.6,620.1,698.5,622.3z"/>
	</g>
</g>
<g>
	<g>
		<path fill="#010101" d="M841,534.7"/>
	</g>
</g>
<g>
	<g>
		<path fill="#010101" d="M1011.3,481"/>
	</g>
</g>
<g>
	<g>
		<path fill="#010101" d="M922,504.5"/>
	</g>
</g>
<g>
	<g>
		<path fill="#010101" d="M690,658.3c0,0-0.1,0-0.1,0c-0.4-0.1-0.6-0.4-0.6-0.8c1.5-43.3,34.9-74.7,35.2-75.1c0.3-0.3,0.8-0.3,1.1,0
			c0.3,0.3,0.3,0.8,0,1.1c-0.3,0.3-30.8,29-34.5,69.1c2.7-6.3,8.4-17.6,17.3-23.3c10-6.5,26.2-10,34.3-4.8c3.7,2.4,5.3,6.4,4.6,11.6
			c-0.8,5.4-3.9,6.9-5.8,7.4c-3.1,0.8-6.8-0.6-8.6-3.2c-1.4-2-1.4-4.3,0-6.5c0.2-0.3,0.7-0.4,1-0.2s0.4,0.7,0.2,1
			c-1.4,2.1-0.8,3.7-0.1,4.8c1.4,2.1,4.5,3.2,7.1,2.6c2.5-0.6,4.2-2.8,4.6-6.1c0.6-4.6-0.7-8-3.9-10.1c-7.5-4.8-23.2-1.3-32.7,4.8
			c-12,7.8-18.4,26.9-18.4,27.1C690.6,658.1,690.3,658.3,690,658.3z"/>
	</g>
</g>
<g>
	<g>
		<path fill="#010101" d="M644.5,599.5"/>
	</g>
</g>
<g>
	<g>
		<path fill="#010101" d="M640.7,598c0,0,0.2,0.3,0.6,0.9c0.4,0.5,1.1,1.3,2.1,2.1c1,0.8,2.3,1.6,3.8,2.4c1.6,0.8,3.4,1.4,5.5,1.9
			c2.1,0.5,4.4,0.8,6.8,0.9c2.4,0.1,5,0.1,7.7-0.1c2.7-0.2,5.4-0.6,8.2-1c2.9-0.5,5.6-1.1,8.4-1.7c2.8-0.7,5.6-1.5,8.3-2.3
			c2.7-0.9,5.3-1.8,7.8-2.9c2.5-1.1,4.9-2.1,7.1-3.2c2.2-1.1,4.3-2.3,6.2-3.4c3.7-2.2,6.7-4.3,8.8-5.9c2-1.6,3.1-2.5,3.1-2.5
			s-0.8,1.2-2.6,3.1c-1.8,1.9-4.5,4.5-8,7.2c-1.8,1.3-3.8,2.7-6,4.1c-2.2,1.3-4.6,2.7-7.1,3.8c-2.5,1.2-5.2,2.4-8,3.3
			c-2.8,1-5.7,1.8-8.6,2.6c-2.9,0.7-5.9,1.3-8.8,1.7c-2.9,0.5-5.8,0.7-8.7,0.7c-2.8,0.1-5.6-0.1-8.2-0.4c-2.6-0.3-5-0.9-7.2-1.7
			c-2.2-0.8-4-1.7-5.6-2.8c-1.5-1-2.7-2.1-3.6-3.1c-0.9-1-1.4-1.9-1.7-2.5C640.8,598.4,640.7,598,640.7,598z"/>
	</g>
</g>
<g>
	<g>
		<path fill="#010101" d="M922,504.5c0,0,1.2,2.4,3.9,6.2c2.7,3.8,6.9,9,12.8,14.2c3,2.6,6.4,5.1,10.2,7.5c3.8,2.3,8.1,4.3,12.7,5.8
			c4.6,1.5,9.5,2.5,14.6,2.9c5.1,0.4,10.3,0.2,15.4-0.6c5.1-0.7,10.2-1.9,14.7-4c1.1-0.5,2.3-1,3.3-1.7c0.5-0.3,1.1-0.6,1.6-0.9
			l1.5-1c2-1.4,3.8-3,5.3-4.8c1.5-1.8,2.8-3.7,3.8-5.7c1-2,1.7-4.1,2.1-6.3c0.3-1.1,0.3-2.1,0.5-3.2c0-0.5,0-1.1,0.1-1.6
			c0-0.5,0-1,0-1.6c0-0.5,0-1-0.1-1.5c0-0.5-0.1-1-0.2-1.5c-0.1-1-0.3-2-0.5-2.9c-0.8-3.8-2.1-7.2-3.5-10c-0.3-0.7-0.7-1.4-1.1-2
			c-0.4-0.7-0.7-1.3-1.1-1.9c-0.4-0.6-0.7-1.1-1.1-1.7c-0.4-0.5-0.7-1-1.1-1.5c-0.7-1-1.3-1.7-1.9-2.4c-0.5-0.7-1.1-1.3-1.5-1.7
			c-0.8-0.9-1.3-1.4-1.3-1.4s0.5,0.4,1.4,1.3c0.5,0.4,1.1,0.9,1.7,1.6c0.6,0.6,1.4,1.4,2.2,2.3c1.6,1.7,3.3,4,5.1,6.8
			c1.7,2.8,3.4,6.2,4.4,10.2c1,4,1.6,8.5,0.8,13.3c-0.7,4.8-2.7,9.7-6.1,13.8c-3.3,4.1-7.9,7.4-12.8,9.7c-5,2.3-10.4,3.6-15.8,4.4
			c-5.4,0.7-10.9,0.9-16.3,0.4c-5.4-0.4-10.6-1.7-15.4-3.4c-4.8-1.7-9.3-4-13.2-6.6c-3.9-2.6-7.3-5.5-10.2-8.3
			c-5.8-5.7-9.5-11.4-11.9-15.4c-1.2-2-2-3.7-2.5-4.8C922.2,505.1,922,504.5,922,504.5z"/>
	</g>
</g>
<g>
	<g>
		<path fill="#010101" d="M840.5,545.4"/>
	</g>
</g>
<g>
	<g>
		<path fill="#010101" d="M1011.3,481"/>
	</g>
</g>
<g>
	<g>
		<path fill="#010101" d="M1015.6,485.5c0,0-0.6-0.6-1.8-1.7c-1.2-1.1-3-2.7-5.5-4.5c-2.4-1.8-5.5-3.9-9.3-5.9
			c-3.7-2-8.1-3.9-13-5.4c-4.9-1.6-10.4-2.8-16.3-3.6c-5.9-0.8-12.1-1.1-18.6-1c-6.5,0.1-13.2,0.7-19.9,1.7
			c-6.7,1-13.5,2.5-20.1,4.4c-3.3,1-6.6,2-9.8,3.2c-0.8,0.3-1.6,0.6-2.4,0.9l-2.4,1l-2.3,1l-2.3,1.1c-6,3.1-11.6,6.7-16.6,10.7
			c-2.5,2-4.9,4.1-7.2,6.2c-2.3,2.1-4.4,4.3-6.4,6.5c-2,2.2-3.8,4.4-5.5,6.7c-1.7,2.2-3.2,4.4-4.6,6.6c-0.7,1.1-1.3,2.2-2,3.2
			c-0.6,1.1-1.2,2.1-1.8,3.2c-1.1,2.1-2.1,4.1-3,6c-1.7,3.9-2.9,7.4-3.8,10.3c-0.8,2.9-1.4,5.3-1.7,6.9c-0.3,1.6-0.5,2.5-0.5,2.5
			s0.1-0.9,0.2-2.5c0.2-1.6,0.4-4.1,1-7.1c0.6-3,1.5-6.7,3-10.8c1.4-4.1,3.4-8.6,6-13.2c1.3-2.3,2.8-4.7,4.4-7.1
			c1.6-2.4,3.4-4.8,5.4-7.1c3.9-4.8,8.4-9.4,13.6-13.7c5.2-4.3,10.9-8.3,17.2-11.5l2.4-1.2l2.5-1.1l2.4-1c0.9-0.4,1.7-0.7,2.5-1
			c3.3-1.3,6.7-2.4,10.2-3.4c6.9-1.9,13.9-3.4,20.8-4.4c7-1,13.9-1.4,20.5-1.3c6.7,0,13.1,0.7,19.2,1.7c6,1,11.7,2.7,16.7,4.6
			c5,1.9,9.4,4.2,13,6.5c3.7,2.3,6.6,4.7,8.9,6.7c2.3,2.1,3.9,3.9,5,5.1C1015,484.8,1015.6,485.5,1015.6,485.5z"/>
	</g>
</g>
<g>
	<g>
		<path fill="#010101" d="M841,534.7c0,0-0.1,0.7-0.4,2c-0.1,0.7-0.3,1.5-0.5,2.4c-0.2,1-0.3,2.1-0.5,3.3c-0.1,0.6-0.2,1.3-0.3,2
			c-0.1,0.7-0.2,1.4-0.2,2.2c-0.2,1.5-0.3,3.1-0.4,4.9c0,0.9-0.1,1.8-0.1,2.7c0,0.9,0,1.9,0,2.9c0,0.5,0,1,0,1.5
			c0,0.5,0.1,1,0.1,1.5c0.1,1,0.1,2.1,0.2,3.1c0.4,4.3,1.2,8.9,2.7,13.5c1.5,4.7,3.6,9.4,6.6,13.8c2.9,4.4,6.8,8.5,11.6,11.2
			c2.4,1.4,5,2.4,7.7,2.7c2.7,0.4,5.5,0.1,7.9-1c2.5-1,4.6-2.9,6.2-5c0.4-0.6,0.9-1.2,1.1-1.7c0.2-0.3,0.3-0.6,0.5-0.9l0.4-0.9
			c0.3-0.6,0.4-1.3,0.6-1.9c0.1-0.6,0.2-1.3,0.3-2c0.1-2.6-0.6-5.3-1.8-7.6c-1.2-2.4-3-4.4-4.9-6.1c-4-3.5-8.6-5.8-13.3-7.2
			c-4.7-1.4-9.3-2.1-13.6-2.3c-4.3-0.2-8.2,0-11.7,0.4c-1.7,0.2-3.4,0.4-4.9,0.7c-1.5,0.3-2.9,0.5-4.1,0.8c-1.2,0.3-2.3,0.5-3.3,0.8
			c-0.9,0.3-1.7,0.5-2.4,0.7c-1.3,0.4-2,0.5-2,0.5s0.7-0.2,2-0.7c0.6-0.2,1.4-0.5,2.4-0.8c0.9-0.3,2-0.6,3.2-0.9
			c1.2-0.3,2.6-0.6,4.1-1c1.5-0.3,3.1-0.6,4.9-0.9c3.5-0.5,7.5-0.9,11.8-0.8c4.4,0.1,9.1,0.7,13.9,2c4.8,1.4,9.8,3.7,14,7.3
			c2.1,1.8,4,4,5.3,6.6c1.4,2.6,2.2,5.5,2,8.6c-0.1,0.8-0.1,1.5-0.3,2.3c-0.2,0.7-0.3,1.5-0.6,2.2l-0.4,1.1c-0.2,0.3-0.4,0.7-0.5,1
			c-0.4,0.7-0.8,1.3-1.2,1.9c-1.8,2.5-4.2,4.5-7,5.7c-2.8,1.2-6,1.5-9,1.1c-3-0.4-5.8-1.6-8.3-3c-5.1-3-9.1-7.3-12.1-11.8
			c-3.1-4.6-5.1-9.5-6.5-14.4c-1.4-4.8-2.1-9.5-2.4-13.9c-0.3-4.3-0.2-8.3,0.2-11.9c0.1-1.8,0.4-3.4,0.6-4.9
			c0.1-0.8,0.2-1.5,0.3-2.2c0.1-0.7,0.3-1.3,0.4-2c0.4-2.5,1-4.4,1.3-5.7C840.9,535.4,841,534.7,841,534.7z"/>
	</g>
</g>
<g>
	<g>
		<path fill="#010101" d="M707.9,619.1c0,0-0.6,0.2-1.6,0.6c-1.1,0.4-2.6,1-4.6,1.6c-2,0.6-4.4,1.4-7.3,2.1
			c-2.8,0.7-6.1,1.5-9.6,2.1c-7.1,1.2-15.7,1.8-24.7,0.5c-4.5-0.7-9.2-1.8-13.6-3.7c-4.5-1.9-8.7-4.6-12.2-8.2
			c-3.5-3.6-6.1-8.3-6.7-13.4c-0.2-1.3-0.2-2.5-0.1-3.8c0-0.6,0.1-1.2,0.2-1.9c0.1-0.5,0.3-1.2,0.4-1.8c0.7-2.4,2.2-4.7,4.1-6.3
			c1.9-1.6,4.2-2.6,6.5-3.1c2.3-0.5,4.6-0.6,6.7-0.4c4.3,0.5,8.2,2,11.3,4c3.1,2,5.6,4.5,7.2,7c1.7,2.5,2.7,4.9,3.3,7
			c0.6,2,0.8,3.7,0.8,4.8c0,0.6,0,1,0.1,1.3c0,0.3,0,0.4,0,0.4s0-0.1-0.1-0.4c0-0.3-0.1-0.7-0.2-1.3c-0.2-1.1-0.6-2.7-1.3-4.6
			c-0.7-1.9-1.9-4.2-3.7-6.4c-1.8-2.2-4.2-4.4-7.2-6.1c-3-1.7-6.6-3-10.5-3.2c-1.9-0.1-3.9,0-5.9,0.5c-1.9,0.5-3.8,1.4-5.2,2.7
			c-1.5,1.3-2.6,3-3.1,5c-0.6,2-0.7,4.2-0.4,6.3c0.5,4.3,2.8,8.4,5.9,11.7c3.1,3.3,7.1,5.8,11.2,7.7c4.2,1.9,8.6,3.1,12.9,3.8
			c4.3,0.8,8.6,1,12.7,1c4.1,0,7.9-0.3,11.5-0.7c7.1-0.8,12.9-2.1,17-3.1c2-0.5,3.6-0.9,4.7-1.2
			C707.3,619.3,707.9,619.1,707.9,619.1z"/>
	</g>
</g>
<g>
	<g>
		<path fill="#010101" d="M640.4,597c0-1.8,1.4-3.2,3.2-3.2c1.8,0,3.2,1.4,3.2,3.2c0,1.5-1.1,2.8-2.5,3.1c0,0.5,0.3,1.6,1.5,2.3
			c1.8,1.2,5.2,4.4,4.4,4.1c-2.6-1-6-3-7.6-4.9C641.7,600.9,640.4,599.4,640.4,597z"/>
	</g>
</g>
<g>
	<g>
		<path fill="#010101" d="M731.8,636.9c0.2-2,1.1-5.2,2.8-6.3c1.2-0.8,2.9-0.5,3.7,0.7c0.8,1.2,0.5,2.9-0.7,3.7
			c-1.1,0.7-2.5,0.6-3.4-0.3c-0.4,0.3-1,1.3-1,2.6"/>
	</g>
</g>
<g>
	<g>
		<path fill="#010101" d="M668.2,607.8c0,0,0.1,0.8,0.3,2.2c0.1,1.5,0.3,3.6,0.2,6.4c-0.2,5.5-1.2,13.4-4.8,22.2
			c-1.8,4.4-4.3,9-7.6,13.3c-3.3,4.4-7.6,8.4-12.6,11.7c-5,3.3-10.8,5.8-16.8,7.4c-6.1,1.6-12.5,2.4-18.8,2.5l-4.7,0
			c-1.6-0.1-3.2-0.2-4.8-0.3c-1.6-0.2-3.2-0.4-4.7-0.6l-2.4-0.4l-1.2-0.2l-1.2-0.3c-6.2-1.4-12.2-3.8-17.3-7.1
			c-5.2-3.3-9.6-7.4-12.9-11.9c-1.7-2.2-3.2-4.5-4.5-6.8c-1.2-2.3-2.3-4.6-3.2-6.8c-1.8-4.5-2.8-8.8-3.5-12.6
			c-0.6-3.8-0.8-7.2-0.8-10c0-2.8,0.3-4.9,0.5-6.4c0.3-1.5,0.4-2.2,0.4-2.2l0.5,0.1c0,0,0,0.8,0,2.2c0,1.5,0.1,3.6,0.4,6.2
			c0.3,2.7,0.9,5.9,1.8,9.5c0.9,3.6,2.3,7.5,4.3,11.6c2,4.1,4.5,8.3,7.8,12.2c1.6,2,3.5,3.8,5.5,5.6c1,0.9,2,1.8,3.1,2.5
			c0.5,0.4,1.1,0.8,1.6,1.2c0.6,0.4,1.1,0.8,1.7,1.1c4.6,3,10,5.3,15.7,6.9l1.1,0.3l1.1,0.2l2.2,0.5c1.5,0.3,3,0.5,4.4,0.7
			c1.5,0.2,3,0.3,4.5,0.5l4.6,0.2c6.1,0.1,12.2-0.5,18-1.8c5.8-1.4,11.3-3.5,16.1-6.6c0.6-0.4,1.2-0.8,1.8-1.1
			c0.6-0.4,1.1-0.8,1.7-1.2c1.1-0.8,2.2-1.7,3.2-2.6c2-1.8,3.9-3.7,5.6-5.8c3.4-4,5.9-8.3,7.8-12.5c1.9-4.2,3.2-8.2,4.1-11.9
			c0.8-3.7,1.3-6.9,1.5-9.6c0.2-2.7,0.2-4.8,0.1-6.3c-0.1-1.5-0.2-2.2-0.2-2.2L668.2,607.8z"/>
	</g>
</g>
<g>
	<g>
		<path fill="#010101" d="M548,187.8"/>
	</g>
</g>
<g>
	<g>
		<path fill="#010101" d="M377.3,226.1l-0.2-1c30.2-6,64.4-21.8,92-34.6c20-9.3,37.3-17.3,48.5-19.5l0.2,1
			c-11,2.2-28.3,10.2-48.2,19.4C441.9,204.2,407.6,220.1,377.3,226.1z"/>
	</g>
</g>
<g>
	<g>
		<path fill="#010101" d="M375,258.6"/>
	</g>
</g>
<g>
	<g>
		<path fill="#010101" d="M204.7,312.3"/>
	</g>
</g>
<g>
	<g>
		<path fill="#010101" d="M294,288.8"/>
	</g>
</g>
<g>
	<g>
		<path fill="#010101" d="M491,211.1c-0.2,0-0.4-0.1-0.5-0.2c-0.3-0.3-0.3-0.8,0-1.1c0.3-0.3,30.8-29,34.5-69.1
			c-2.7,6.3-8.4,17.6-17.3,23.3c-10,6.5-26.2,10-34.3,4.8c-3.7-2.4-5.3-6.4-4.6-11.6c0.8-5.4,3.9-6.9,5.8-7.4
			c3.1-0.7,6.8,0.6,8.6,3.2c1.4,2,1.4,4.3,0,6.5c-0.2,0.3-0.7,0.4-1,0.2c-0.3-0.2-0.4-0.7-0.2-1c1.4-2.1,0.8-3.7,0.1-4.8
			c-1.4-2.1-4.5-3.2-7.1-2.6c-2.5,0.6-4.2,2.8-4.6,6.1c-0.6,4.6,0.7,8,3.9,10.1c7.5,4.8,23.2,1.3,32.7-4.8
			c12-7.8,18.4-26.9,18.4-27.1c0.1-0.4,0.5-0.6,0.8-0.5c0.4,0.1,0.6,0.4,0.6,0.8c-1.5,43.3-34.9,74.7-35.2,75.1
			C491.4,211,491.2,211.1,491,211.1z"/>
	</g>
</g>
<g>
	<g>
		<path fill="#010101" d="M571.5,193.8"/>
	</g>
</g>
<g>
	<g>
		<path fill="#010101" d="M570,113.3c0,0,0.8-0.9,2.5-2.3c1.7-1.4,4.3-3.3,7.6-5.1c1.7-0.9,3.5-1.8,5.6-2.6c2-0.8,4.2-1.6,6.5-2.2
			c2.3-0.6,4.8-1.1,7.3-1.5c2.5-0.3,5.1-0.5,7.7-0.4c2.6,0,5.1,0.2,7.6,0.6c1.3,0.2,2.5,0.4,3.7,0.7c1.2,0.3,2.4,0.6,3.5,0.9
			c1.2,0.3,2.3,0.7,3.4,1.1c1.1,0.4,2.1,0.8,3.1,1.2c1,0.4,2,0.8,2.9,1.3c0.9,0.5,1.8,0.9,2.6,1.3c1.7,0.9,3.2,1.8,4.4,2.7
			c1.3,0.8,2.4,1.6,3.3,2.3c1.7,1.3,2.7,2.1,2.7,2.1s-1.2-0.5-3.1-1.5c-1-0.5-2.2-1-3.6-1.6c-1.4-0.6-3-1.2-4.7-1.9
			c-0.8-0.4-1.8-0.6-2.7-1c-0.9-0.3-1.9-0.7-2.9-1c-2-0.6-4.1-1.2-6.3-1.7c-1.1-0.2-2.2-0.5-3.4-0.7c-1.2-0.1-2.3-0.4-3.5-0.5
			c-2.4-0.2-4.8-0.5-7.2-0.5c-2.4-0.1-4.8,0.1-7.2,0.3c-2.4,0.3-4.7,0.5-6.9,1c-2.2,0.5-4.4,1-6.4,1.6c-2,0.6-3.9,1.3-5.6,1.9
			c-1.7,0.7-3.3,1.3-4.6,2c-1.4,0.6-2.5,1.2-3.5,1.7C571.1,112.6,570,113.3,570,113.3z"/>
	</g>
</g>
<g>
	<g>
		<path fill="#010101" d="M575.3,195.3c0,0-0.2-0.3-0.6-0.9c-0.4-0.5-1.1-1.3-2.1-2.1c-1-0.8-2.3-1.6-3.8-2.4
			c-1.6-0.8-3.4-1.4-5.5-1.9c-2.1-0.5-4.4-0.8-6.8-0.9c-2.4-0.1-5-0.1-7.7,0.1c-2.7,0.2-5.4,0.6-8.2,1c-2.9,0.5-5.6,1.1-8.4,1.7
			c-2.8,0.7-5.6,1.5-8.3,2.3c-2.7,0.9-5.3,1.8-7.8,2.9c-2.5,1.1-4.9,2.1-7.1,3.2c-2.2,1.1-4.3,2.3-6.2,3.4c-3.7,2.2-6.7,4.3-8.8,5.9
			c-2,1.6-3.1,2.5-3.1,2.5s0.8-1.2,2.6-3.1c1.8-1.9,4.5-4.5,8-7.2c1.8-1.3,3.8-2.7,6-4.1c2.2-1.3,4.6-2.7,7.1-3.8
			c2.5-1.2,5.2-2.4,8-3.3c2.8-1,5.7-1.8,8.6-2.6c2.9-0.7,5.9-1.3,8.8-1.7c2.9-0.5,5.8-0.7,8.7-0.7c2.8-0.1,5.6,0.1,8.2,0.4
			c2.6,0.3,5,0.9,7.2,1.7c2.2,0.8,4,1.7,5.6,2.8c1.5,1,2.7,2.1,3.6,3.1c0.9,1,1.4,1.9,1.7,2.5C575.2,195,575.3,195.3,575.3,195.3z"
			/>
	</g>
</g>
<g>
	<g>
		<path fill="#010101" d="M294,288.8c0,0-1.2-2.4-3.9-6.2c-2.7-3.8-6.9-9-12.8-14.2c-3-2.6-6.4-5.1-10.2-7.5
			c-3.8-2.3-8.1-4.3-12.7-5.8c-4.6-1.5-9.5-2.5-14.6-2.9c-5.1-0.4-10.3-0.2-15.4,0.6c-5.1,0.7-10.2,1.9-14.7,4
			c-1.1,0.5-2.3,1-3.3,1.7c-0.5,0.3-1.1,0.6-1.6,0.9l-1.5,1c-2,1.4-3.8,3-5.3,4.8c-1.5,1.8-2.8,3.7-3.8,5.7c-1,2-1.7,4.1-2.1,6.3
			c-0.3,1.1-0.3,2.1-0.5,3.2c0,0.5,0,1.1-0.1,1.6c0,0.5,0,1,0,1.6c0,0.5,0,1,0.1,1.5c0,0.5,0.1,1,0.2,1.5c0.1,1,0.3,2,0.5,2.9
			c0.8,3.8,2.1,7.2,3.5,10c0.3,0.7,0.7,1.4,1.1,2c0.4,0.7,0.7,1.3,1.1,1.9c0.4,0.6,0.7,1.1,1.1,1.7c0.4,0.5,0.7,1,1.1,1.5
			c0.7,1,1.3,1.7,1.9,2.4c0.5,0.7,1.1,1.3,1.5,1.7c0.8,0.9,1.3,1.4,1.3,1.4s-0.5-0.4-1.4-1.3c-0.5-0.4-1.1-0.9-1.7-1.6
			c-0.6-0.6-1.4-1.4-2.2-2.3c-1.6-1.7-3.3-4-5.1-6.8c-1.7-2.8-3.4-6.2-4.4-10.2c-1-4-1.6-8.5-0.8-13.3c0.7-4.8,2.7-9.7,6.1-13.8
			c3.3-4.1,7.9-7.4,12.8-9.7c5-2.3,10.4-3.6,15.8-4.4c5.4-0.7,10.9-0.9,16.3-0.4c5.4,0.4,10.6,1.7,15.4,3.4c4.8,1.7,9.3,4,13.2,6.6
			c3.9,2.6,7.3,5.5,10.2,8.3c5.8,5.7,9.5,11.4,11.9,15.4c1.2,2,2,3.7,2.5,4.8C293.8,288.2,294,288.8,294,288.8z"/>
	</g>
</g>
<g>
	<g>
		<path fill="#010101" d="M375.5,247.9"/>
	</g>
</g>
<g>
	<g>
		<path fill="#010101" d="M204.7,312.3"/>
	</g>
</g>
<g>
	<g>
		<path fill="#010101" d="M200.4,307.8c0,0,0.6,0.6,1.8,1.7c1.2,1.1,3,2.7,5.5,4.5c2.4,1.8,5.5,3.9,9.3,5.9c3.7,2,8.1,3.9,13,5.4
			c4.9,1.6,10.4,2.8,16.3,3.6c5.9,0.8,12.1,1.1,18.6,1c6.5-0.1,13.2-0.7,19.9-1.7c6.7-1,13.5-2.5,20.1-4.4c3.3-1,6.6-2,9.8-3.2
			c0.8-0.3,1.6-0.6,2.4-0.9l2.4-1l2.3-1l2.3-1.1c6-3.1,11.6-6.7,16.6-10.7c2.5-2,4.9-4.1,7.2-6.2c2.3-2.1,4.4-4.3,6.4-6.5
			c2-2.2,3.8-4.4,5.5-6.7c1.7-2.2,3.2-4.4,4.6-6.6c0.7-1.1,1.3-2.2,2-3.2c0.6-1.1,1.2-2.1,1.8-3.2c1.1-2.1,2.1-4.1,3-6
			c1.7-3.9,2.9-7.4,3.8-10.3c0.8-2.9,1.4-5.3,1.7-6.9c0.3-1.6,0.5-2.5,0.5-2.5s-0.1,0.9-0.2,2.5c-0.2,1.6-0.4,4.1-1,7.1
			c-0.6,3-1.5,6.7-3,10.8c-1.4,4.1-3.4,8.6-6,13.2c-1.3,2.3-2.8,4.7-4.4,7.1c-1.6,2.4-3.4,4.8-5.4,7.1c-3.9,4.8-8.4,9.4-13.6,13.7
			c-5.2,4.3-10.9,8.3-17.2,11.5l-2.4,1.2l-2.5,1.1l-2.4,1c-0.9,0.4-1.7,0.7-2.5,1c-3.3,1.3-6.7,2.4-10.2,3.4
			c-6.9,1.9-13.9,3.4-20.8,4.4c-7,1-13.9,1.4-20.5,1.3c-6.7,0-13.1-0.7-19.2-1.7c-6-1-11.7-2.7-16.7-4.6c-5-1.9-9.4-4.2-13-6.5
			c-3.7-2.3-6.6-4.7-8.9-6.7c-2.3-2.1-3.9-3.9-5-5.1C201,308.5,200.4,307.8,200.4,307.8z"/>
	</g>
</g>
<g>
	<g>
		<path fill="#010101" d="M375,258.6c0,0,0.1-0.7,0.4-2c0.1-0.7,0.3-1.5,0.5-2.4c0.2-1,0.3-2.1,0.5-3.3c0.1-0.6,0.2-1.3,0.3-2
			c0.1-0.7,0.2-1.4,0.2-2.2c0.2-1.5,0.3-3.1,0.4-4.9c0-0.9,0.1-1.8,0.1-2.7c0-0.9,0-1.9,0-2.9c0-0.5,0-1,0-1.5c0-0.5-0.1-1-0.1-1.5
			c-0.1-1-0.1-2.1-0.2-3.1c-0.4-4.3-1.2-8.9-2.7-13.5c-1.5-4.7-3.6-9.4-6.6-13.8c-2.9-4.4-6.8-8.5-11.6-11.2c-2.4-1.4-5-2.4-7.7-2.7
			c-2.7-0.4-5.5-0.1-7.9,1c-2.5,1-4.6,2.9-6.2,5c-0.4,0.6-0.9,1.2-1.1,1.7c-0.2,0.3-0.3,0.6-0.5,0.9l-0.4,0.9
			c-0.3,0.6-0.4,1.3-0.6,1.9c-0.1,0.6-0.2,1.3-0.3,2c-0.1,2.6,0.6,5.3,1.8,7.6c1.2,2.4,3,4.4,4.9,6.1c4,3.5,8.6,5.8,13.3,7.2
			c4.7,1.4,9.3,2.1,13.6,2.3c4.3,0.2,8.2,0,11.7-0.4c1.7-0.2,3.4-0.4,4.9-0.7c1.5-0.3,2.9-0.5,4.1-0.8c1.2-0.3,2.3-0.5,3.3-0.8
			c0.9-0.3,1.7-0.5,2.4-0.7c1.3-0.4,2-0.5,2-0.5s-0.7,0.2-2,0.7c-0.6,0.2-1.4,0.5-2.4,0.8c-0.9,0.3-2,0.6-3.2,0.9
			c-1.2,0.3-2.6,0.6-4.1,1c-1.5,0.3-3.1,0.6-4.9,0.9c-3.5,0.5-7.5,0.9-11.8,0.8c-4.4-0.1-9.1-0.7-13.9-2c-4.8-1.4-9.8-3.7-14-7.3
			c-2.1-1.8-4-4-5.3-6.6c-1.4-2.6-2.2-5.5-2-8.6c0.1-0.8,0.1-1.5,0.3-2.3c0.2-0.7,0.3-1.5,0.6-2.2l0.4-1.1c0.2-0.3,0.4-0.7,0.5-1
			c0.4-0.7,0.8-1.3,1.2-1.9c1.8-2.5,4.2-4.5,7-5.7c2.8-1.2,6-1.5,9-1.1c3,0.4,5.8,1.6,8.3,3c5.1,3,9.1,7.3,12.1,11.8
			c3.1,4.6,5.1,9.5,6.5,14.4c1.4,4.8,2.1,9.5,2.4,13.9c0.3,4.3,0.2,8.3-0.2,11.9c-0.1,1.8-0.4,3.4-0.6,4.9c-0.1,0.8-0.2,1.5-0.3,2.2
			c-0.1,0.7-0.3,1.3-0.4,2c-0.4,2.5-1,4.4-1.3,5.7C375.1,257.9,375,258.6,375,258.6z"/>
	</g>
</g>
<g>
	<g>
		<path fill="#010101" d="M508.1,174.2c0,0,0.6-0.2,1.6-0.6c1.1-0.4,2.6-1,4.6-1.6c2-0.6,4.4-1.4,7.3-2.1c2.8-0.7,6.1-1.5,9.6-2.1
			c7.1-1.2,15.7-1.8,24.7-0.5c4.5,0.7,9.2,1.8,13.6,3.7c4.5,1.9,8.7,4.6,12.2,8.2c3.5,3.6,6.1,8.3,6.7,13.4c0.2,1.3,0.2,2.5,0.1,3.8
			c0,0.6-0.1,1.2-0.2,1.9c-0.1,0.5-0.3,1.2-0.4,1.8c-0.7,2.4-2.2,4.7-4.1,6.3c-1.9,1.6-4.2,2.6-6.5,3.1c-2.3,0.5-4.6,0.6-6.7,0.4
			c-4.3-0.5-8.2-2-11.3-4c-3.1-2-5.6-4.5-7.2-7c-1.7-2.5-2.7-4.9-3.3-7c-0.6-2-0.8-3.7-0.8-4.8c0-0.6,0-1-0.1-1.3c0-0.3,0-0.4,0-0.4
			s0,0.1,0.1,0.4c0,0.3,0.1,0.7,0.2,1.3c0.2,1.1,0.6,2.7,1.3,4.6c0.7,1.9,1.9,4.2,3.7,6.4c1.8,2.2,4.2,4.4,7.2,6.1
			c3,1.7,6.6,3,10.5,3.2c1.9,0.1,3.9,0,5.9-0.5c1.9-0.5,3.8-1.4,5.2-2.7c1.5-1.3,2.6-3,3.1-5c0.6-2,0.7-4.2,0.4-6.3
			c-0.5-4.3-2.8-8.4-5.9-11.7c-3.1-3.3-7.1-5.8-11.2-7.7c-4.2-1.9-8.6-3.1-12.9-3.8c-4.3-0.8-8.6-1-12.7-1c-4.1,0-7.9,0.3-11.5,0.7
			c-7.1,0.8-12.9,2.1-17,3.1c-2,0.5-3.6,0.9-4.7,1.2C508.7,174,508.1,174.2,508.1,174.2z"/>
	</g>
</g>
<g>
	<g>
		<path fill="#010101" d="M575.6,196.3c0,1.8-1.4,3.2-3.2,3.2c-1.8,0-3.2-1.4-3.2-3.2c0-1.5,1.1-2.8,2.5-3.1c0-0.5-0.3-1.6-1.5-2.3
			c-1.8-1.2-5.2-4.4-4.4-4.1c2.6,1,6,3,7.6,4.9C574.3,192.4,575.6,193.9,575.6,196.3z"/>
	</g>
</g>
<g>
	<g>
		<path fill="#010101" d="M484.2,156.4c-0.2,2-1.1,5.2-2.8,6.3c-1.2,0.8-2.9,0.5-3.7-0.7c-0.8-1.2-0.5-2.9,0.7-3.7
			c1.1-0.7,2.5-0.6,3.4,0.3c0.4-0.3,1-1.3,1-2.6"/>
	</g>
</g>
<g>
	<g>
		<path fill="#010101" d="M668,187.8"/>
	</g>
</g>
<g>
	<g>
		<path fill="#010101" d="M838.7,226.1c-30.3-6-64.6-21.9-92.2-34.7c-20-9.2-37.2-17.2-48.2-19.4l0.2-1
			c11.1,2.2,28.4,10.2,48.5,19.5c27.5,12.7,61.8,28.6,92,34.6L838.7,226.1z"/>
	</g>
</g>
<g>
	<g>
		<path fill="#010101" d="M841,258.6"/>
	</g>
</g>
<g>
	<g>
		<path fill="#010101" d="M1011.3,312.3"/>
	</g>
</g>
<g>
	<g>
		<path fill="#010101" d="M922,288.8"/>
	</g>
</g>
<g>
	<g>
		<path fill="#010101" d="M725,211.1c-0.2,0-0.4-0.1-0.5-0.2c-0.3-0.3-33.7-31.8-35.2-75.1c0-0.4,0.3-0.7,0.6-0.8
			c0.4-0.1,0.7,0.1,0.8,0.5c0.1,0.2,6.4,19.3,18.4,27.1c9.4,6.1,25.2,9.6,32.7,4.8c3.2-2.1,4.6-5.5,3.9-10.1
			c-0.5-3.4-2.1-5.5-4.6-6.1c-2.5-0.6-5.6,0.5-7.1,2.6c-0.7,1-1.3,2.7,0.1,4.8c0.2,0.3,0.1,0.8-0.2,1c-0.3,0.2-0.8,0.1-1-0.2
			c-1.4-2.1-1.4-4.5,0-6.5c1.8-2.6,5.5-3.9,8.6-3.2c1.8,0.4,5,2,5.8,7.4c0.7,5.2-0.9,9.2-4.6,11.6c-8.1,5.2-24.3,1.7-34.3-4.8
			c-8.8-5.7-14.6-17-17.3-23.3c3.7,40.1,34.1,68.8,34.5,69.1c0.3,0.3,0.3,0.8,0,1.1C725.4,211,725.2,211.1,725,211.1z"/>
	</g>
</g>
<g>
	<g>
		<path fill="#010101" d="M644.5,193.8"/>
	</g>
</g>
<g>
	<g>
		<path fill="#010101" d="M640.7,195.3c0,0,0.1-0.4,0.4-1c0.3-0.6,0.9-1.5,1.7-2.5c0.9-1,2.1-2.1,3.6-3.1c1.5-1.1,3.4-2,5.6-2.8
			c2.2-0.8,4.6-1.4,7.2-1.7c2.6-0.4,5.3-0.5,8.2-0.4c2.8,0.1,5.7,0.3,8.7,0.7c2.8,0.4,5.9,1,8.8,1.7c2.9,0.7,5.8,1.6,8.6,2.6
			c2.8,1,5.4,2.1,8,3.3c2.5,1.2,4.9,2.5,7.1,3.8c2.2,1.3,4.2,2.7,6,4.1c3.6,2.7,6.3,5.3,8,7.2c1.8,1.9,2.6,3.1,2.6,3.1
			s-1.1-1-3.1-2.5c-2-1.6-5-3.6-8.8-5.9c-1.9-1.1-3.9-2.2-6.2-3.4c-2.2-1.1-4.6-2.2-7.1-3.2c-2.5-1.1-5.1-2-7.8-2.9
			c-2.7-0.9-5.5-1.7-8.3-2.3c-2.8-0.7-5.5-1.3-8.4-1.7c-2.8-0.4-5.5-0.8-8.2-1c-2.7-0.2-5.3-0.2-7.7-0.1c-2.4,0.2-4.7,0.5-6.8,0.9
			c-2.1,0.5-3.9,1.1-5.5,1.9c-1.6,0.8-2.8,1.6-3.8,2.4c-1,0.8-1.7,1.5-2.1,2.1C640.9,195,640.7,195.3,640.7,195.3z"/>
	</g>
</g>
<g>
	<g>
		<path fill="#010101" d="M922,288.8c0,0,0.2-0.6,0.8-1.8c0.5-1.1,1.3-2.8,2.5-4.8c2.3-4,6.1-9.7,11.9-15.4
			c2.9-2.9,6.3-5.7,10.2-8.3c3.9-2.6,8.3-4.9,13.2-6.6c4.8-1.7,10.1-2.9,15.4-3.4c5.4-0.5,10.9-0.3,16.3,0.4
			c5.4,0.8,10.8,2.1,15.8,4.4c5,2.3,9.5,5.6,12.8,9.7c3.4,4.1,5.4,9,6.1,13.8c0.8,4.8,0.2,9.4-0.8,13.3c-1.1,4-2.7,7.4-4.4,10.2
			c-1.7,2.8-3.5,5.1-5.1,6.8c-0.8,0.9-1.5,1.6-2.2,2.3c-0.6,0.7-1.2,1.2-1.7,1.6c-0.9,0.8-1.4,1.3-1.4,1.3s0.4-0.5,1.3-1.4
			c0.4-0.5,0.9-1,1.5-1.7c0.6-0.7,1.2-1.5,1.9-2.4c0.3-0.5,0.7-1,1.1-1.5c0.3-0.5,0.7-1.1,1.1-1.7c0.4-0.6,0.7-1.2,1.1-1.9
			c0.4-0.7,0.8-1.3,1.1-2c1.4-2.8,2.8-6.2,3.5-10c0.2-1,0.4-1.9,0.5-2.9c0-0.5,0.1-1,0.2-1.5c0-0.5,0-1,0.1-1.5c0-0.5,0-1,0-1.6
			c0-0.5,0-1-0.1-1.6c-0.1-1-0.2-2.1-0.5-3.2c-0.4-2.1-1.1-4.2-2.1-6.3c-1-2-2.3-4-3.8-5.7c-1.5-1.8-3.3-3.4-5.3-4.8l-1.5-1
			c-0.5-0.3-1.1-0.6-1.6-0.9c-1-0.6-2.2-1.1-3.3-1.7c-4.6-2.1-9.6-3.3-14.7-4c-5.1-0.7-10.4-1-15.4-0.6c-5.1,0.4-10,1.3-14.6,2.9
			c-4.6,1.5-8.9,3.5-12.7,5.8c-3.8,2.3-7.2,4.9-10.2,7.5c-5.9,5.2-10.1,10.4-12.8,14.2C923.2,286.4,922,288.8,922,288.8z"/>
	</g>
</g>
<g>
	<g>
		<path fill="#010101" d="M840.5,247.9"/>
	</g>
</g>
<g>
	<g>
		<path fill="#010101" d="M1011.3,312.3"/>
	</g>
</g>
<g>
	<g>
		<path fill="#010101" d="M1015.6,307.8c0,0-0.6,0.7-1.6,1.9c-1.1,1.2-2.7,3-5,5.1c-2.3,2.1-5.3,4.4-8.9,6.7c-3.7,2.3-8,4.6-13,6.5
			c-5,1.9-10.6,3.5-16.7,4.6c-6,1.1-12.5,1.7-19.2,1.7c-6.7,0.1-13.6-0.4-20.5-1.3c-6.9-1-13.9-2.4-20.8-4.4
			c-3.4-1-6.8-2.1-10.2-3.4c-0.8-0.3-1.6-0.6-2.5-1l-2.4-1l-2.5-1.1l-2.4-1.2c-6.3-3.3-12.1-7.2-17.2-11.5
			c-5.2-4.3-9.7-8.9-13.6-13.7c-2-2.4-3.7-4.8-5.4-7.1c-1.6-2.4-3.1-4.8-4.4-7.1c-2.6-4.7-4.6-9.2-6-13.2c-1.5-4.1-2.4-7.7-3-10.8
			c-0.6-3-0.9-5.4-1-7.1c-0.1-1.6-0.2-2.5-0.2-2.5s0.2,0.9,0.5,2.5c0.3,1.6,0.9,4,1.7,6.9c0.9,2.9,2.1,6.4,3.8,10.3
			c0.8,1.9,1.8,4,3,6c0.5,1.1,1.2,2.1,1.8,3.2c0.6,1.1,1.3,2.2,2,3.2c1.4,2.2,2.9,4.4,4.6,6.6c1.7,2.2,3.5,4.5,5.5,6.7
			c2,2.2,4.1,4.4,6.4,6.5c2.2,2.1,4.6,4.2,7.2,6.2c5,4,10.7,7.6,16.6,10.7l2.3,1.1l2.3,1l2.4,1c0.7,0.3,1.6,0.6,2.4,0.9
			c3.2,1.2,6.5,2.2,9.8,3.2c6.6,1.9,13.4,3.4,20.1,4.4c6.7,1,13.4,1.6,19.9,1.7c6.5,0.1,12.7-0.2,18.6-1c5.9-0.8,11.4-2,16.3-3.6
			c4.9-1.6,9.3-3.5,13-5.4c3.7-2,6.8-4,9.3-5.9c2.4-1.8,4.3-3.4,5.5-4.5C1014.9,308.4,1015.6,307.8,1015.6,307.8z"/>
	</g>
</g>
<g>
	<g>
		<path fill="#010101" d="M841,258.6c0,0-0.2-0.7-0.5-2c-0.3-1.3-0.9-3.2-1.3-5.7c-0.1-0.6-0.2-1.3-0.4-2c-0.1-0.7-0.2-1.4-0.3-2.2
			c-0.2-1.5-0.5-3.1-0.6-4.9c-0.4-3.5-0.4-7.5-0.2-11.9c0.3-4.3,1-9,2.4-13.9c1.4-4.8,3.4-9.8,6.5-14.4c3-4.6,7-8.9,12.1-11.8
			c2.5-1.5,5.3-2.6,8.3-3c3-0.4,6.2-0.1,9,1.1c2.8,1.2,5.2,3.3,7,5.7c0.4,0.6,0.8,1.2,1.2,1.9c0.2,0.3,0.4,0.7,0.5,1l0.4,1.1
			c0.3,0.7,0.4,1.5,0.6,2.2c0.1,0.7,0.2,1.5,0.3,2.3c0.1,3-0.7,6-2,8.6c-1.4,2.6-3.3,4.8-5.3,6.6c-4.2,3.7-9.2,5.9-14,7.3
			c-4.8,1.4-9.6,1.9-13.9,2c-4.4,0.1-8.3-0.2-11.8-0.8c-1.7-0.3-3.4-0.6-4.9-0.9c-1.5-0.4-2.9-0.6-4.1-1c-1.2-0.3-2.3-0.6-3.2-0.9
			c-0.9-0.3-1.7-0.6-2.4-0.8c-1.3-0.4-2-0.7-2-0.7s0.7,0.2,2,0.5c0.7,0.2,1.5,0.4,2.4,0.7c1,0.2,2,0.5,3.3,0.8
			c1.2,0.3,2.6,0.5,4.1,0.8c1.5,0.3,3.1,0.5,4.9,0.7c3.5,0.4,7.4,0.6,11.7,0.4c4.3-0.2,8.9-0.9,13.6-2.3c4.6-1.5,9.3-3.8,13.3-7.2
			c2-1.7,3.7-3.8,4.9-6.1c1.2-2.3,1.9-5,1.8-7.6c-0.1-0.7-0.1-1.3-0.3-2c-0.2-0.6-0.3-1.3-0.6-1.9l-0.4-0.9
			c-0.1-0.3-0.3-0.6-0.5-0.9c-0.3-0.6-0.7-1.2-1.1-1.7c-1.6-2.1-3.7-4-6.2-5c-2.5-1.1-5.2-1.4-7.9-1c-2.7,0.4-5.3,1.4-7.7,2.7
			c-4.8,2.7-8.6,6.8-11.6,11.2c-3,4.4-5.1,9.2-6.6,13.8c-1.5,4.7-2.3,9.3-2.7,13.5c-0.1,1.1-0.1,2.1-0.2,3.1c0,0.5-0.1,1-0.1,1.5
			c0,0.5,0,1,0,1.5c0,1,0,1.9,0,2.9c0,0.9,0.1,1.8,0.1,2.7c0,1.8,0.2,3.4,0.4,4.9c0.1,0.8,0.1,1.5,0.2,2.2c0.1,0.7,0.2,1.3,0.3,2
			c0.2,1.2,0.3,2.4,0.5,3.3c0.2,1,0.4,1.8,0.5,2.4C840.9,257.9,841,258.6,841,258.6z"/>
	</g>
</g>
<g>
	<g>
		<path fill="#010101" d="M707.9,174.2c0,0-0.6-0.2-1.7-0.5c-1.1-0.3-2.7-0.7-4.7-1.2c-4-1-9.9-2.3-17-3.1
			c-3.5-0.4-7.4-0.7-11.5-0.7c-4.1,0-8.3,0.3-12.7,1c-4.3,0.7-8.7,1.9-12.9,3.8c-4.1,1.9-8.1,4.4-11.2,7.7
			c-3.1,3.3-5.3,7.4-5.9,11.7c-0.3,2.2-0.1,4.3,0.4,6.3c0.6,2,1.7,3.7,3.1,5c1.5,1.3,3.3,2.2,5.2,2.7c1.9,0.5,3.9,0.6,5.9,0.5
			c3.9-0.2,7.5-1.5,10.5-3.2c3-1.7,5.4-3.9,7.2-6.1c1.8-2.2,2.9-4.5,3.7-6.4c0.7-1.9,1.1-3.5,1.3-4.6c0.1-0.5,0.2-1,0.2-1.3
			c0-0.3,0.1-0.4,0.1-0.4s0,0.1,0,0.4c0,0.3,0,0.7-0.1,1.3c-0.1,1.1-0.3,2.8-0.8,4.8c-0.6,2-1.6,4.5-3.3,7c-1.7,2.5-4.1,5-7.2,7
			c-3.1,2-7,3.6-11.3,4c-2.2,0.2-4.4,0.2-6.7-0.4c-2.3-0.5-4.6-1.5-6.5-3.1c-1.9-1.6-3.3-3.9-4.1-6.3c-0.2-0.6-0.3-1.3-0.4-1.8
			c-0.1-0.7-0.2-1.3-0.2-1.9c-0.1-1.3-0.1-2.5,0.1-3.8c0.6-5.1,3.2-9.8,6.7-13.4c3.5-3.6,7.8-6.4,12.2-8.2c4.5-1.9,9.1-3.1,13.6-3.7
			c9.1-1.3,17.6-0.6,24.7,0.5c3.6,0.6,6.8,1.3,9.6,2.1c2.8,0.7,5.3,1.5,7.3,2.1c2,0.6,3.5,1.2,4.6,1.6
			C707.3,174,707.9,174.2,707.9,174.2z"/>
	</g>
</g>
<g>
	<g>
		<path fill="#010101" d="M640.4,196.3c0,1.8,1.4,3.2,3.2,3.2c1.8,0,3.2-1.4,3.2-3.2c0-1.5-1.1-2.8-2.5-3.1c0-0.5,0.3-1.6,1.5-2.3
			c1.8-1.2,5.2-4.4,4.4-4.1c-2.6,1-6,3-7.6,4.9C641.7,192.4,640.4,193.9,640.4,196.3z"/>
	</g>
</g>
<g>
	<g>
		<path fill="#010101" d="M731.8,156.4c0.2,2,1.1,5.2,2.8,6.3c1.2,0.8,2.9,0.5,3.7-0.7c0.8-1.2,0.5-2.9-0.7-3.7
			c-1.1-0.7-2.5-0.6-3.4,0.3c-0.4-0.3-1-1.3-1-2.6"/>
	</g>
</g>
<g>
	<g>
		<path fill="#010101" d="M667.8,185.4c0,0,0.1-0.8,0.2-2.2c0-1.4,0.1-3.6-0.1-6.3c-0.2-2.7-0.6-6-1.5-9.6
			c-0.8-3.7-2.1-7.7-4.1-11.9c-1.9-4.2-4.5-8.5-7.8-12.5c-1.7-2-3.6-3.9-5.6-5.8c-1.1-0.9-2.1-1.8-3.2-2.6c-0.6-0.4-1.1-0.8-1.7-1.2
			c-0.6-0.4-1.2-0.8-1.8-1.1c-4.8-3-10.3-5.2-16.1-6.6c-5.8-1.4-11.9-1.9-18-1.8l-4.6,0.2c-1.5,0.2-3,0.3-4.5,0.5
			c-1.5,0.3-3,0.4-4.4,0.7l-2.2,0.5l-1.1,0.2l-1.1,0.3c-5.7,1.6-11,3.9-15.7,6.9c-0.6,0.4-1.2,0.8-1.7,1.1c-0.6,0.4-1.1,0.8-1.6,1.2
			c-1.1,0.8-2.1,1.7-3.1,2.5c-2,1.8-3.8,3.6-5.5,5.6c-3.3,3.9-5.8,8.1-7.8,12.2c-1.9,4.1-3.3,8-4.3,11.6c-1,3.6-1.5,6.8-1.8,9.5
			c-0.3,2.7-0.4,4.8-0.4,6.2c0,1.5,0,2.2,0,2.2l-0.5,0.1c0,0-0.1-0.8-0.4-2.2c-0.2-1.5-0.5-3.6-0.5-6.4c0-2.8,0.2-6.1,0.8-10
			c0.6-3.8,1.7-8.1,3.5-12.6c0.9-2.3,2-4.5,3.2-6.8c1.3-2.3,2.7-4.6,4.5-6.8c3.4-4.5,7.8-8.6,12.9-11.9c5.2-3.3,11.1-5.6,17.3-7.1
			l1.2-0.3l1.2-0.2l2.4-0.4c1.6-0.3,3.2-0.4,4.7-0.6c1.6-0.1,3.2-0.2,4.8-0.3l4.7,0c6.4,0.1,12.7,0.9,18.8,2.5
			c6.1,1.7,11.9,4.1,16.8,7.4c5,3.3,9.3,7.3,12.6,11.7c3.4,4.3,5.8,8.9,7.6,13.3c3.6,8.8,4.6,16.7,4.8,22.2c0.1,2.7-0.1,4.9-0.2,6.4
			c-0.2,1.5-0.3,2.2-0.3,2.2L667.8,185.4z"/>
	</g>
</g>
</svg>
