<?xml version="1.0" encoding="utf-8"?>
<!-- Generator: Adobe Illustrator 22.1.0, SVG Export Plug-In . SVG Version: 6.00 Build 0)  -->
<svg version="1.1" id="Layer_1" xmlns="http://www.w3.org/2000/svg" xmlns:xlink="http://www.w3.org/1999/xlink" x="0px" y="0px"
	 viewBox="0 0 100 100" style="enable-background:new 0 0 100 100;" xml:space="preserve">
<path d="M40.1,55.8c0-0.4,0.3-1.1,0.8-1.9c0.5-0.8,0.8-1.4,0.8-1.8c0-0.1-0.3-0.3-1-0.7c-0.7-0.4-1.4-1-2.1-2
	c-0.8-0.9-1.1-1.7-1.1-2.3s0.4-1.2,1.1-1.8c0.7-0.6,1.4-0.9,2.1-0.9c0.7,0,2,0.7,4.1,2c0.6,0.4,1.1,0.6,1.4,0.6
	c0.3,0,0.5-0.2,0.5-0.7l-0.1-0.6l-0.2-1.4c-0.2-1.3-0.2-2.4-0.2-3.3c0-0.9,0.2-1.6,0.7-2.1c0.4-0.5,1.3-0.8,2.4-0.8
	c1.2,0,2,0.2,2.5,0.7c0.4,0.5,0.7,1.5,0.7,3.2c0,0.2-0.1,1.3-0.4,3c-0.2,1.1-0.2,1.9-0.2,2.3c0,0.3,0,0.4,0.1,0.4
	c0.3,0,1.3-0.6,3.1-1.8c1.8-1.2,3-1.8,3.6-1.8c0.7,0,1.3,0.3,2.1,1c0.7,0.7,1.1,1.5,1.1,2.4c0,1.2-1.4,2.5-4.3,3.8
	c-1.2,0.5-1.8,0.8-1.8,1c0,0.8,0.4,1.4,1.2,2c1.5,1.1,2.2,2.3,2.2,3.7c0,1.4-0.4,2.1-1.1,2.1c-1.3,0-2.4-0.2-3.4-0.5
	c-1-0.3-1.6-0.5-1.9-0.5c-0.2,0-0.6,0.5-1.3,1.4c-0.7,1-2,1.4-3.9,1.4H47c-0.2,0-0.5-0.3-0.9-0.9c-0.9-1.3-1.7-2-2.4-2l-2.2,0.2
	C40.5,59.2,40.1,58.1,40.1,55.8z"/>
</svg>
