<?xml version="1.0" encoding="utf-8"?>
<!-- Generator: Adobe Illustrator 22.1.0, SVG Export Plug-In . SVG Version: 6.00 Build 0)  -->
<svg version="1.1" id="Layer_1" xmlns="http://www.w3.org/2000/svg" xmlns:xlink="http://www.w3.org/1999/xlink" x="0px" y="0px"
	 viewBox="0 0 500 78" style="enable-background:new 0 0 500 78;" xml:space="preserve">
<g>
	<polygon points="407.5,16 401.5,16 401.5,67 495.5,67 495.5,61 407.5,61 	"/>
	<path d="M495.4,28.3c0-4.9-4-9-9-9H465v27.2v3.2h21.6c4.9,0,9-4,9-9c0-2.3-0.9-4.6-2.5-6.2C494.5,32.9,495.4,30.7,495.4,28.3z
		 M470.4,31.8v-7h16.1c1.9,0,3.5,1.6,3.5,3.5s-1.6,3.5-3.5,3.5H470.4z M490,40.8c0,1.9-1.6,3.5-3.5,3.5h-16.1v-7h16.1
		C488.4,37.3,490,38.9,490,40.8z"/>
	<path d="M429.6,45.1h16.3l2.5,5.1l4.9-2.4L438,16.6l-15.9,31.1l4.9,2.5L429.6,45.1z M437.9,28.8l5.3,10.8h-10.8L437.9,28.8z"/>
	<path d="M162.5,18.7h-15.9v30.8h15.9c8.5,0,15.4-6.9,15.4-15.4S171,18.7,162.5,18.7z M162.5,43.9h-10.2V24.4h10.2
		c5.4,0,9.7,4.4,9.7,9.7C172.2,39.5,167.8,43.9,162.5,43.9z"/>
	<path d="M318.4,19.2c-8.4,0-15.2,6.8-15.2,15.2s6.8,15.2,15.2,15.2c8.4,0,15.2-6.8,15.2-15.2S326.8,19.2,318.4,19.2z M328,34.4
		c0,5.3-4.3,9.5-9.5,9.5c-5.3,0-9.5-4.3-9.5-9.5s4.3-9.5,9.5-9.5C323.7,24.9,328,29.2,328,34.4z"/>
	<polygon points="127.9,38.5 102.4,17.6 102.4,49.2 108,49.2 108,29.6 133.6,50.4 133.6,18.8 127.9,18.8 	"/>
	<polygon points="266.1,24.7 278.6,24.7 278.6,49.3 284.2,49.3 284.2,24.7 296.2,24.7 296.2,19 266.1,19 	"/>
	<path d="M373.9,28.1c0-5.1-4.2-9.3-9.3-9.3h-21.8v30.6h5.7v-12h13.7l6.9,12.9l5-2.7l-5.9-10.9C371.7,35.2,373.9,31.8,373.9,28.1z
		 M368.3,28.1c0,2-1.6,3.6-3.6,3.6h-16.1v-7.3h16.1C366.7,24.4,368.3,26.1,368.3,28.1z"/>
	<path d="M253.2,38.3c-1.5,3.6-5.1,6-9.1,6c-5.4,0-9.8-4.4-9.8-9.8s4.4-9.8,9.8-9.8c3.7,0,7.2,2.2,8.8,5.5l0.5,1.1l5.1-2.5l-0.5-1.1
		c-2.6-5.3-8-8.7-13.9-8.7c-8.5,0-15.5,6.9-15.5,15.5S235.7,50,244.2,50c6.2,0,11.8-3.7,14.3-9.5l0.5-1.2l-5.2-2.2L253.2,38.3z"/>
	<path d="M213.7,34.3c0,5.5-4.5,9.9-9.9,9.9c-5.5,0-9.9-4.5-9.9-9.9V19.2h-5.7v15.1c0,8.6,7,15.6,15.6,15.6s15.6-7,15.6-15.6V19.2
		h-5.7L213.7,34.3L213.7,34.3z"/>
	<path d="M76.5,19.2c-8.4,0-15.2,6.8-15.2,15.2s6.8,15.2,15.2,15.2s15.2-6.8,15.2-15.2C91.6,26,84.8,19.2,76.5,19.2z M76.5,43.9
		c-5.3,0-9.5-4.3-9.5-9.5s4.3-9.5,9.5-9.5c5.3,0,9.5,4.3,9.5,9.5S81.7,43.9,76.5,43.9z"/>
	<path d="M47.6,48.7c-3,6.9-9.7,11.3-17.2,11.3c-10.3,0-18.7-8.4-18.7-18.7s8.4-18.7,18.7-18.7c7.2,0,13.6,4,16.8,10.4l0.3,0.6
		l5.9-2.9l-0.3-0.6C48.9,21.6,40,16,30.4,16c-14,0-25.3,11.3-25.3,25.3c0,13.9,11.3,25.3,25.3,25.3c10.1,0,19.2-6,23.2-15.3l0.3-0.6
		L47.8,48L47.6,48.7z"/>
</g>
</svg>
