<?xml version="1.0" encoding="utf-8"?>
<!-- Generator: Adobe Illustrator 22.1.0, SVG Export Plug-In . SVG Version: 6.00 Build 0)  -->
<svg version="1.1" id="Layer_1" xmlns="http://www.w3.org/2000/svg" xmlns:xlink="http://www.w3.org/1999/xlink" x="0px" y="0px"
	 viewBox="0 0 158.9 180" style="enable-background:new 0 0 158.9 180;" xml:space="preserve">
<path d="M153.2,21.1c-2.4,0-4.5,1.5-5.4,3.6L53.7,5.9c0,0,0-0.1,0-0.1c0-3.2-2.6-5.8-5.8-5.8s-5.8,2.6-5.8,5.8c0,2,1,3.7,2.5,4.8
	L7.1,94.9c-0.4-0.1-0.9-0.2-1.3-0.2c-3.2,0-5.8,2.6-5.8,5.8c0,3.2,2.5,5.7,5.7,5.8l8.7,51.9c-2.2,0.8-3.8,2.9-3.8,5.4
	c0,3.2,2.6,5.8,5.8,5.8s5.8-2.6,5.8-5.8c0-1.8-0.8-3.4-2.1-4.5l17.4-31.7L94.7,174c0,0.1,0,0.1,0,0.2c0,3.2,2.6,5.8,5.8,5.8
	s5.8-2.6,5.8-5.8c0-2.6-1.7-4.8-4.1-5.5l9.3-83.4c3-0.2,5.4-2.7,5.4-5.8c0-1.4-0.5-2.8-1.4-3.8l35-43.7c0.8,0.4,1.7,0.7,2.7,0.7
	c3.2,0,5.8-2.6,5.8-5.8S156.4,21.1,153.2,21.1z M99.9,168.5L71.8,74c1.3-0.7,2.3-2,2.7-3.4l30.8,8.5c0,0.2,0,0.3,0,0.5
	c0,2.6,1.7,4.8,4.1,5.5l-9.3,83.4C100,168.4,100,168.4,99.9,168.5z M11.3,98.9l53-26.5c0.2,0.2,0.4,0.4,0.6,0.6l-28.1,51.2l-25.9-21
	c0.4-0.8,0.7-1.8,0.7-2.8C11.6,100,11.5,99.4,11.3,98.9z M50.8,10.8l39.4,46l-16.9,8.4c-1.1-1.2-2.6-2-4.3-2c-0.3,0-0.5,0-0.8,0.1
	L50.7,10.9C50.7,10.8,50.8,10.8,50.8,10.8z M105.8,77l-31.1-8.6c0-0.5-0.2-1-0.3-1.5l17.2-8.5l14.9,17.4
	C106.3,76.2,106,76.6,105.8,77z M111.1,73.7c-1.1,0-2,0.3-2.9,0.8l-14.6-17l55-27.1c0.1,0.1,0.2,0.2,0.3,0.3l-35,43.7
	C113,73.9,112,73.7,111.1,73.7z M147.4,26.8C147.4,26.8,147.4,26.8,147.4,26.8c0,0.6,0.1,1.2,0.2,1.7L92.1,55.8L52.4,9.4
	c0.4-0.4,0.7-0.9,0.9-1.5L147.4,26.8z M46.5,11.4c0.4,0.1,0.9,0.2,1.3,0.2c0.3,0,0.5,0,0.8-0.1l17.5,52.4c-1.8,1-3,2.9-3,5.1
	c0,0.6,0.1,1.1,0.2,1.6L10.4,97c-0.4-0.5-0.8-0.9-1.3-1.3L46.5,11.4z M18.1,158.2c-0.5-0.2-1.1-0.3-1.7-0.3L7.8,106
	c0.7-0.2,1.3-0.6,1.8-1l26.2,21.2L18.1,158.2z M38.4,125.6l28.2-51.4c0.7,0.3,1.5,0.5,2.3,0.5c0.3,0,0.6,0,0.9-0.1l28,94.4
	c-1.1,0.6-2.1,1.5-2.6,2.7L38.4,125.6z"/>
</svg>
