<?xml version="1.0" encoding="utf-8"?>
<!-- Generator: Adobe Illustrator 22.1.0, SVG Export Plug-In . SVG Version: 6.00 Build 0)  -->
<svg version="1.1" id="Layer_1" xmlns="http://www.w3.org/2000/svg" xmlns:xlink="http://www.w3.org/1999/xlink" x="0px" y="0px"
	 viewBox="0 0 227.8 8" style="enable-background:new 0 0 227.8 8;" xml:space="preserve">
<g>
	<g>
		<path d="M21.9,3.8c0.7,0,1.1,0.4,1.1,1.1v0.5l0,0.3c0,1.4-0.3,2.1-1,2.2C21.7,7.9,18,8,11,8H4.9L4.1,8H1.6C0.5,8,0,7.6,0,6.9V6.3
			L0,6c0-1.3,0.3-2,0.8-2.1c0.3-0.1,4-0.1,11.1-0.1l0.8,0H21.9z"/>
		<path d="M41.9,0h1c0.2,0,0.4,0.1,0.5,0.1c0.8,0,1.5,0.4,2.1,1.1c0.6,0.7,1,1.5,1,2.3v0.7c0,1.1-0.4,1.9-1.1,2.6
			c-0.8,0.7-1.6,1-2.6,1h-0.8c-0.2,0-0.5-0.1-0.7-0.1c-0.8,0-1.5-0.3-2.1-1c-0.6-0.7-0.9-1.4-0.9-2.1l0-0.3V3.5c0-0.2,0-0.3,0-0.4
			c0-0.8,0.4-1.5,1.1-2.1C40.1,0.3,41,0,41.9,0z"/>
		<path d="M66,0h1c0.2,0,0.4,0.1,0.5,0.1c0.8,0,1.5,0.4,2.1,1.1c0.6,0.7,1,1.5,1,2.3v0.7c0,1.1-0.4,1.9-1.1,2.6
			c-0.8,0.7-1.6,1-2.6,1H66c-0.2,0-0.5-0.1-0.7-0.1c-0.8,0-1.5-0.3-2.1-1c-0.6-0.7-0.9-1.4-0.9-2.1l0-0.3V3.5c0-0.2,0-0.3,0-0.4
			c0-0.8,0.4-1.5,1.1-2.1C64.2,0.3,65.1,0,66,0z"/>
		<path d="M129.7,3.8c0.7,0,1.1,0.4,1.1,1.1v0.5l0,0.3c0,1.4-0.3,2.1-1,2.2c-0.3,0-4,0.1-11,0.1h-6.2l-0.8,0h-2.4
			c-1.1,0-1.6-0.4-1.6-1.1V6.3l0-0.3c0-1.3,0.3-2,0.8-2.1c0.3-0.1,4-0.1,11.1-0.1l0.8,0H129.7z"/>
		<path d="M189.2,3.8c0.7,0,1.1,0.4,1.1,1.1v0.5l0,0.3c0,1.4-0.3,2.1-1,2.2c-0.3,0-4,0.1-11,0.1h-6.2l-0.8,0h-2.4
			c-1.1,0-1.6-0.4-1.6-1.1V6.3l0-0.3c0-1.3,0.3-2,0.8-2.1c0.3-0.1,4-0.1,11.1-0.1l0.8,0H189.2z"/>
		<path d="M226.7,3.8c0.7,0,1.1,0.4,1.1,1.1v0.5l0,0.3c0,1.4-0.3,2.1-1,2.2c-0.3,0-4,0.1-11,0.1h-6.2l-0.8,0h-2.4
			c-1.1,0-1.6-0.4-1.6-1.1V6.3l0-0.3c0-1.3,0.3-2,0.8-2.1c0.3-0.1,4-0.1,11.1-0.1l0.8,0H226.7z"/>
	</g>
</g>
</svg>
