<?xml version="1.0" encoding="utf-8"?>
<!-- Generator: Adobe Illustrator 22.1.0, SVG Export Plug-In . SVG Version: 6.00 Build 0)  -->
<svg version="1.1" id="Layer_1" xmlns="http://www.w3.org/2000/svg" xmlns:xlink="http://www.w3.org/1999/xlink" x="0px" y="0px"
	 viewBox="0 0 150 150" style="enable-background:new 0 0 150 150;" xml:space="preserve">
<g>
	<g>
		<g>
			<path d="M35.5,63.7h14.3l3.9,3.9v15.4l-3.9,3.9H35.5V63.7z M48,83.5l1.9-1.9V68.8L48,67h-8.6v16.5H48z"/>
		</g>
		<g>
			<path d="M71.7,66.9h-6.9v-3.3h17.7v3.3h-6.9v19.9h-3.8V66.9z"/>
		</g>
		<g>
			<path d="M94.4,63.7h3.5l10.9,16.8h0.1V63.7h3.7v23.1H109L98.1,70H98v16.8h-3.7V63.7z"/>
		</g>
	</g>
	<g>
		<path d="M140,110.5H10v-71h130V110.5z M15,105.5h120v-61H15V105.5z"/>
	</g>
</g>
</svg>
