<?xml version="1.0" encoding="utf-8"?>
<!-- Generator: Adobe Illustrator 21.1.0, SVG Export Plug-In . SVG Version: 6.00 Build 0)  -->
<svg version="1.1" id="Layer_1" xmlns="http://www.w3.org/2000/svg" xmlns:xlink="http://www.w3.org/1999/xlink" x="0px" y="0px"
	 viewBox="0 0 100 100" style="enable-background:new 0 0 100 100;" xml:space="preserve">
<style type="text/css">
	.st0{fill:#232323;}
</style>
<path class="st0" d="M100.1,18.2c-3.7,1.7-7.6,2.7-11.8,3.2c4.2-2.5,7.5-6.5,9-11.3c-4,2.3-8.3,4-13,5c-3.8-4-9.1-6.5-15-6.5
	C58,8.6,48.9,17.7,48.9,29c0,1.7,0.2,3.2,0.5,4.7C32.3,33,17.1,24.9,7,12.4c-1.8,3-2.8,6.5-2.8,10.3c0,7.1,3.7,13.5,9.1,17.1
	c-3.3-0.2-6.5-1-9.3-2.5c0,0.2,0,0.2,0,0.3c0,10,7.1,18.3,16.5,20.1c-1.7,0.5-3.5,0.7-5.5,0.7c-1.3,0-2.7-0.2-3.8-0.3
	c2.7,8.1,10.1,14.1,19.1,14.3c-7,5.5-15.8,8.8-25.4,8.8c-1.7,0-3.3-0.2-4.8-0.3C9.2,86.7,19.9,90,31.5,90
	c37.7,0,58.4-31.3,58.4-58.4c0-0.8,0-1.8,0-2.7C93.8,26.1,97.3,22.4,100.1,18.2z"/>
</svg>
