<?xml version="1.0" encoding="utf-8"?>
<!-- Generator: Adobe Illustrator 22.1.0, SVG Export Plug-In . SVG Version: 6.00 Build 0)  -->
<svg version="1.1" id="Layer_1" xmlns="http://www.w3.org/2000/svg" xmlns:xlink="http://www.w3.org/1999/xlink" x="0px" y="0px"
	 viewBox="0 0 574.4 560" style="enable-background:new 0 0 574.4 560;" xml:space="preserve">
<style type="text/css">
	.st0{fill:#232323;}
</style>
<path class="st0" d="M285.3,0C133.3,0,9.7,123.6,9.7,275.8c0,121.9,79.5,226.1,189,261.6c14.1,1.7,19.4-5.3,19.4-14.1
	c0-7.1,0-24.7,0-47.7c-77.7,15.8-93.7-37.1-93.7-37.1c-12.5-31.9-29.9-40.7-29.9-40.7c-24.7-17.7,1.7-17.7,1.7-17.7
	c28.3,1.7,42.4,28.3,42.4,28.3c24.7,42.4,65.4,29.9,81.2,23c1.7-17.7,8.9-29.9,17.7-37.1c-63.7-1.9-128.9-24.9-128.9-131
	c0-29.9,10.5-54.9,28.3-74.3c-3.6-7.1-12.5-35.5,3.6-72.4c0,0,23-7.1,75.9,28.3c21.2-5.3,46-8.9,69-8.9s47.7,3.6,69,8.9
	c52.9-35.5,75.9-28.3,75.9-28.3c15.8,38.8,5.3,65.4,3.6,72.4c17.7,19.4,28.3,44.1,28.3,74.3c0,106-65.4,129-125.6,136.1
	c10.5,8.9,19.4,24.7,19.4,51.3c0,37.1,0,67.1,0,75.9c0,7.1,5.3,15.8,19.4,14.1c109.6-37.1,189.1-139.7,189.1-261.6
	C560.9,123.6,437.2,0,285.3,0z"/>
</svg>
