<?xml version="1.0" encoding="utf-8"?>
<!-- Generator: Adobe Illustrator 22.1.0, SVG Export Plug-In . SVG Version: 6.00 Build 0)  -->
<svg version="1.1" id="Layer_1" xmlns="http://www.w3.org/2000/svg" xmlns:xlink="http://www.w3.org/1999/xlink" x="0px" y="0px"
	 viewBox="0 0 100 100" style="enable-background:new 0 0 100 100;" xml:space="preserve">
<g>
	<g>
		<path d="M76.2,72.5l20.4-20.9v-5.2l-3.1-3H82.3l-3.1,3v2.7H76v-3.7l4.8-4.8h14.1l4.8,4.8v7.2L79.4,73.4v3.1H100v2.9H76.2V72.5z"/>
	</g>
	<g>
		<g>
			<path d="M0,41.3h3.1l20.3,32.4h0.1V41.3h2.9v37.4h-3.1L3,46.3H2.9v32.4H0V41.3z"/>
		</g>
		<g>
			<path d="M44,77.3V75l1.4-1.5h2.4l1.4,1.5v2.3l-1.4,1.5h-2.4L44,77.3z"/>
		</g>
		<g>
			<path d="M38,59.6V44.8l3.5-3.5h10.3l3.5,3.5v14.8l-3.5,3.5H41.5L38,59.6z M50.4,60.5l1.9-1.9V45.9l-1.9-1.9h-7.4L41,45.9v12.7
				l1.9,1.9H50.4z"/>
		</g>
	</g>
</g>
</svg>
