<?xml version="1.0" encoding="utf-8"?>
<!-- Generator: Adobe Illustrator 22.1.0, SVG Export Plug-In . SVG Version: 6.00 Build 0)  -->
<svg version="1.1" id="Layer_1" xmlns="http://www.w3.org/2000/svg" xmlns:xlink="http://www.w3.org/1999/xlink" x="0px" y="0px"
	 viewBox="0 0 400 400" style="enable-background:new 0 0 400 400;" xml:space="preserve">
<g>
	<path d="M113.8,75.5l2-1.2l25.8,12.2l0.1,0l-13-20.3l1.9-1.2l15,23.5l-2,1.2l-25.8-12.2l-0.1,0l13,20.4l-1.9,1.2L113.8,75.5z"/>
	<path d="M157.1,78.5l-5.6-18.7l2.8-5.2l11.8-3.5l5.2,2.8l5.6,18.7l-2.8,5.2l-11.8,3.5L157.1,78.5z M172.6,76.1l2-3.6l-5.1-17.3
		l-3.6-1.9l-9.8,2.9l-2,3.6l5.1,17.3l3.6,2L172.6,76.1z"/>
	<path d="M214.5,46.6l2.6,0.4l5.6,23.9l0.1,0l12.7-21l2.7,0.4l-4.4,27.6l-2.2-0.3l3.7-23.3l-0.1,0l-11.9,19.4l-1.9-0.3l-5.3-22.1
		l-0.1,0l-3.7,23.3l-2.2-0.3L214.5,46.6z"/>
	<path d="M266,60.6l2.5,1.2l-3.3,29.4l-2.2-1l1-8.4l-10.8-5.1l-5.9,6l-2.2-1L266,60.6z M264.4,79.6l1.9-16.1l-0.1-0.1l-11.3,11.7
		L264.4,79.6z"/>
	<path d="M293.7,76.8l1.7,1.5l-4.4,28.2l0.1,0.1L307,88.4l1.7,1.4l-18.3,21.1l-1.7-1.5l4.4-28.2l-0.1-0.1l-15.8,18.3l-1.7-1.4
		L293.7,76.8z"/>
	<path d="M319.6,108.1l-0.3-0.4l0.2-1.4l1.2-0.9l1.4,0.2l0.9,1.2l-0.2,1.3l-2,1.5l-4.9,1.5L315,110L319.6,108.1z"/>
	<path d="M311.9,133.8l1.9-0.9l1,2.1l-1.2,0.6l-1,2.9l4.3,8.9l3,1l6.1-2.9l1-2.9l-4.6-9.7l1.6-4.6l6.9-3.3l4.6,1.6l4.9,10.3
		l-1.6,4.6l-1.9,0.9l-1-2.1l1.3-0.6l1-2.9l-4.1-8.5l-2.9-1l-5.5,2.7l-1,2.9l4.6,9.7l-1.6,4.6l-7.6,3.6l-4.7-1.7l-5.1-10.6
		L311.9,133.8z"/>
	<path d="M352.2,181.8l0.1,2.3l-25.8,1.3l0.7,14.2l-2.1,0.1l-0.8-16.5L352.2,181.8z"/>
	<path d="M350,224.9l-0.5,2.7l-29.3,3.9l0.5-2.3l8.4-1.1l2.4-11.7l-7.3-4.2l0.5-2.3L350,224.9z M331.1,227.8l16.1-2.1l0-0.1
		l-14.1-8.2L331.1,227.8z"/>
	<path d="M340.9,255.2l-1,2.1l-28.3,2.9l0,0.1l21.7,10.7l-1,2l-25.1-12.3l1-2.1l28.4-2.9l0-0.1l-21.7-10.7l1-2L340.9,255.2z"/>
	<path d="M319.1,291.5L308.4,303l-5.9,0.2l-14.3-13.3l-0.2-5.9l10.6-11.4L319.1,291.5z M290.2,284.6l0.1,4.1l13.2,12.3l4.1-0.2
		l8.3-9l-17.4-16.2L290.2,284.6z"/>
</g>
</svg>
