<?xml version="1.0" encoding="utf-8"?>
<!-- Generator: Adobe Illustrator 22.1.0, SVG Export Plug-In . SVG Version: 6.00 Build 0)  -->
<svg version="1.1" id="Layer_1" xmlns="http://www.w3.org/2000/svg" xmlns:xlink="http://www.w3.org/1999/xlink" x="0px" y="0px"
	 viewBox="0 0 290.6 82" style="enable-background:new 0 0 290.6 82;" xml:space="preserve">
<g>
	<path d="M104.5,14.7c2.3,0,4.1,0.5,5.4,1.6c1.3,1.1,1.9,2.5,1.9,4.2s-0.6,3.2-1.9,4.4c-1.3,1.2-3,1.7-5.1,1.7h-3.5
		c-0.3,0-0.5,0.1-0.5,0.4v6.8c0,0.4,0.1,0.7,0.4,0.9c0.3,0.2,0.6,0.3,1,0.4l1.3,0.1c0.2,0,0.3,0.1,0.3,0.4c0,0.3-0.1,0.4-0.4,0.4
		l-3.8-0.1L96.3,36c-0.3,0-0.5-0.1-0.5-0.4c0-0.3,0.1-0.4,0.4-0.5l0.9-0.1c0.8-0.1,1.2-0.5,1.2-1.2v-17c0-0.7-0.5-1.1-1.4-1.2
		L96,15.5c-0.2,0-0.3-0.2-0.3-0.4c0-0.3,0.1-0.4,0.4-0.4l4.1,0.1h4.3V14.7z M107.7,24c0.9-0.9,1.4-2,1.4-3.3c0-1.4-0.5-2.5-1.4-3.3
		s-2.2-1.3-3.8-1.3h-1.8c-0.8,0-1.2,0.4-1.2,1.2v7.6c0,0.3,0.1,0.4,0.3,0.4h2.7C105.5,25.3,106.8,24.8,107.7,24z"/>
	<path d="M118.5,33.7c0,0.1-0.1,0.3-0.1,0.4c0,0.2,0.1,0.3,0.2,0.5c0.2,0.2,0.4,0.3,0.7,0.3L120,35c0.3,0,0.4,0.2,0.4,0.4
		c0,0.3-0.2,0.4-0.5,0.4l-2.6-0.1l-2.7,0.1c-0.3,0-0.4-0.1-0.4-0.4c0-0.3,0.1-0.4,0.3-0.4l0.6-0.1c0.9-0.1,1.4-0.5,1.7-1.2l7.7-19
		c0.1-0.2,0.3-0.4,0.7-0.4s0.6,0.1,0.7,0.4l7.7,19c0.3,0.7,0.8,1.2,1.7,1.2L136,35c0.1,0,0.2,0,0.2,0.1c0.1,0.1,0.1,0.2,0.1,0.2
		c0,0.3-0.1,0.4-0.4,0.4l-3.5-0.1l-3.1,0.1c-0.3,0-0.4-0.1-0.4-0.4c0-0.3,0.1-0.4,0.4-0.5L130,35c0.3,0,0.5-0.1,0.6-0.3
		s0.3-0.3,0.3-0.5s0-0.3-0.1-0.4l-1.8-4.6c-0.1-0.2-0.2-0.3-0.5-0.3h-7.8c-0.2,0-0.4,0.1-0.5,0.3L118.5,33.7z M121.3,27.5h6.7
		c0.2,0,0.3-0.1,0.2-0.4l-3.6-9.2l-3.6,9.2C121,27.4,121.1,27.5,121.3,27.5z"/>
	<path d="M155.9,30.3c0,1.9-0.7,3.3-2.1,4.3c-1.4,1-3.1,1.5-5.1,1.5s-3.7-0.2-4.9-0.7s-1.9-1-1.9-1.6v-3.5c0-0.4,0.2-0.6,0.5-0.6
		s0.4,0.2,0.5,0.6c0.5,1.5,1.2,2.7,2,3.4c0.8,0.8,2,1.1,3.5,1.1s2.7-0.3,3.6-1s1.4-1.6,1.4-2.8c0-1.3-0.7-2.4-2.2-3.3
		c-0.7-0.4-1.4-0.8-2.2-1.2c-0.8-0.4-1.6-0.8-2.4-1.2c-0.8-0.4-1.5-0.9-2.2-1.3c-1.5-1.1-2.2-2.4-2.2-4.1s0.6-3,1.9-3.9
		c1.3-1,2.8-1.5,4.5-1.5s3.2,0.2,4.4,0.6c1.2,0.4,1.8,0.9,1.8,1.4v3c0,0.4-0.1,0.6-0.4,0.6c-0.3,0-0.5-0.2-0.6-0.6
		c-0.4-1.3-1-2.2-1.6-2.9c-0.7-0.6-1.7-0.9-3-0.9s-2.4,0.3-3.2,1c-0.8,0.6-1.2,1.4-1.2,2.4s0.4,1.8,1.2,2.5s1.7,1.3,2.8,1.8
		s2.2,1.1,3.3,1.6c1.1,0.6,2.1,1.3,2.8,2.2C155.5,28.1,155.9,29.1,155.9,30.3z"/>
	<path d="M177.8,30.3c0,1.9-0.7,3.3-2.1,4.3c-1.4,1-3.1,1.5-5.1,1.5s-3.7-0.2-4.9-0.7s-1.9-1-1.9-1.6v-3.5c0-0.4,0.2-0.6,0.5-0.6
		s0.4,0.2,0.5,0.6c0.5,1.5,1.2,2.7,2,3.4c0.8,0.8,2,1.1,3.5,1.1s2.7-0.3,3.6-1s1.4-1.6,1.4-2.8c0-1.3-0.7-2.4-2.2-3.3
		c-0.7-0.4-1.4-0.8-2.2-1.2c-0.8-0.4-1.6-0.8-2.4-1.2c-0.8-0.4-1.5-0.9-2.2-1.3c-1.5-1.1-2.2-2.4-2.2-4.1s0.6-3,1.9-3.9
		c1.3-1,2.8-1.5,4.5-1.5s3.2,0.2,4.4,0.6c1.2,0.4,1.8,0.9,1.8,1.4v3c0,0.4-0.1,0.6-0.4,0.6c-0.3,0-0.5-0.2-0.6-0.6
		c-0.4-1.3-1-2.2-1.6-2.9c-0.7-0.6-1.7-0.9-3-0.9s-2.4,0.3-3.2,1c-0.8,0.6-1.2,1.4-1.2,2.4s0.4,1.8,1.2,2.5s1.7,1.3,2.8,1.8
		s2.2,1.1,3.3,1.6c1.1,0.6,2.1,1.3,2.8,2.2C177.4,28.1,177.8,29.1,177.8,30.3z"/>
	<path d="M193.1,14.7c2.3,0,4.1,0.5,5.4,1.6c1.3,1.1,1.9,2.5,1.9,4.2s-0.6,3.2-1.9,4.4c-1.3,1.2-3,1.7-5.1,1.7H190
		c-0.3,0-0.5,0.1-0.5,0.4v6.8c0,0.4,0.1,0.7,0.4,0.9c0.3,0.2,0.6,0.3,1,0.4l1.3,0.1c0.2,0,0.3,0.1,0.3,0.4c0,0.3-0.1,0.4-0.4,0.4
		l-3.8-0.1L185,36c-0.3,0-0.5-0.1-0.5-0.4c0-0.3,0.1-0.4,0.4-0.5l0.9-0.1c0.8-0.1,1.2-0.5,1.2-1.2v-17c0-0.7-0.5-1.1-1.4-1.2
		l-0.9-0.1c-0.2,0-0.3-0.2-0.3-0.4c0-0.3,0.1-0.4,0.4-0.4l4.1,0.1h4.2V14.7z M196.4,24c0.9-0.9,1.4-2,1.4-3.3c0-1.4-0.5-2.5-1.4-3.3
		s-2.2-1.3-3.8-1.3h-1.8c-0.8,0-1.2,0.4-1.2,1.2v7.6c0,0.3,0.1,0.4,0.3,0.4h2.7C194.2,25.3,195.5,24.8,196.4,24z"/>
	<path d="M217,14.4c3.1,0,5.7,1,7.6,3c1.9,2,2.9,4.6,2.9,7.8s-1,5.8-2.9,7.8c-2,2.1-4.5,3.1-7.6,3.1s-5.6-1-7.6-3.1
		c-1.9-2-2.9-4.6-2.9-7.8s1-5.7,2.9-7.8C211.3,15.4,213.9,14.4,217,14.4z M222.9,19.1c-0.6-1-1.4-1.8-2.4-2.4s-2.2-0.9-3.6-0.9
		c-2.4,0-4.3,0.7-5.7,2.2c-1.3,1.5-2,3.5-2,6.1c0,2.7,0.6,5,1.8,7.1c0.6,1,1.4,1.9,2.4,2.5c1,0.6,2.2,0.9,3.6,0.9
		c2.4,0,4.2-0.8,5.6-2.3c1.3-1.6,2-3.7,2-6.3C224.6,23.4,224.1,21.1,222.9,19.1z"/>
	<path d="M243,14.7c1.9,0,3.5,0.5,4.7,1.5s1.8,2.3,1.8,3.9s-0.6,2.9-1.8,4c-1.2,1-2.6,1.6-4,1.6v0.1c0.4,0.1,0.8,0.4,1,0.8l4.5,7.2
		c0.4,0.7,1.1,1.1,2,1.2l0.5,0.1c0.3,0,0.4,0.2,0.4,0.4c0,0.3-0.1,0.4-0.4,0.4c-1.9-0.1-3.1-0.1-3.6-0.1s-0.8-0.2-1.1-0.6l-5.1-8.4
		c-0.4-0.6-0.8-0.9-1.3-0.9l0,0h-2.2c-0.3,0-0.5,0.1-0.5,0.4v7.6c0,0.4,0.1,0.7,0.4,0.9s0.6,0.3,1,0.4l1.3,0.1
		c0.2,0,0.3,0.1,0.3,0.4c0,0.3-0.1,0.4-0.4,0.4l-3.8-0.1l-3.3,0.1c-0.3,0-0.4-0.1-0.5-0.4c0-0.3,0.1-0.4,0.4-0.5l0.9-0.1
		c0.8-0.1,1.2-0.5,1.2-1.2v-17c0-0.7-0.5-1.1-1.4-1.2l-0.9-0.1c-0.2,0-0.3-0.2-0.3-0.4c0-0.3,0.1-0.4,0.4-0.4l4.1,0.1h5.7V14.7z
		 M245.5,23.3c0.9-0.8,1.4-1.8,1.4-3c0-1.3-0.5-2.3-1.4-3s-2.1-1.1-3.5-1.1h-2.8c-0.8,0-1.2,0.4-1.2,1.2V24c0,0.3,0.1,0.4,0.3,0.4
		h3.7C243.4,24.4,244.6,24,245.5,23.3z"/>
	<path d="M267.2,16.9v16.8c0,0.4,0.1,0.6,0.4,0.9c0.3,0.2,0.6,0.3,1,0.4l0.9,0.1c0.2,0,0.4,0.1,0.4,0.4c0,0.1,0,0.2-0.1,0.3
		s-0.2,0.1-0.3,0.1l-3.4-0.1l-3.7,0.1c-0.1,0-0.2,0-0.3-0.1c-0.1-0.1-0.1-0.2-0.1-0.3c0-0.3,0.1-0.4,0.4-0.4l1.1-0.1
		c0.4,0,0.7-0.2,1-0.4s0.4-0.5,0.4-0.9V16.9c0-0.5-0.3-0.8-0.8-0.8h-2.5c-1,0-1.8,0.3-2.3,0.8c-0.6,0.5-1,1.3-1.3,2.4
		c-0.1,0.3-0.3,0.5-0.5,0.5s-0.4-0.1-0.5-0.2s-0.1-0.2-0.1-0.4l0.2-3.9c0-0.4,0.3-0.6,0.7-0.6h16.6c0.4,0,0.6,0.2,0.7,0.7l0.3,3.7
		c0,0.2,0,0.3-0.1,0.4s-0.3,0.1-0.5,0.1s-0.4-0.1-0.5-0.5c-0.4-1.1-0.8-1.8-1.4-2.4c-0.6-0.5-1.3-0.8-2.3-0.8H268
		C267.5,16.1,267.2,16.4,267.2,16.9z"/>
	<path d="M110.8,52.9c0,0.1,0,0.3-0.1,0.4s-0.2,0.2-0.3,0.2c-0.3,0-0.6-0.2-0.7-0.6c-0.4-1.3-1-2.4-2-3.1c-1-0.8-2.1-1.1-3.5-1.1
		c-2.4,0-4.3,0.8-5.8,2.5c-1.4,1.7-2.1,3.8-2.1,6.4c0,2.6,0.8,4.9,2.3,6.9c1.5,2,3.4,3,5.7,3c1.3,0,2.3-0.1,2.9-0.4
		c0.6-0.2,1.1-0.4,1.3-0.5s0.5-0.3,0.9-0.5s0.6-0.4,0.6-0.4c0.4-0.2,0.6-0.3,0.8-0.1c0.1,0.2,0.2,0.3,0.2,0.4s-0.1,0.3-0.2,0.5
		c-0.7,0.8-1.4,1.3-2.1,1.7c-1.3,0.7-2.9,1-4.6,1c-3.1,0-5.7-1-7.6-3.1s-2.9-4.7-2.9-7.8s1-5.7,3-7.7s4.6-3.1,7.8-3.1
		c1.7,0,3.2,0.2,4.6,0.7c1.4,0.5,2.1,0.9,2.1,1.3v3.4H110.8z"/>
	<path d="M118.7,66.7c0,0.1-0.1,0.3-0.1,0.4c0,0.2,0.1,0.3,0.2,0.5c0.2,0.2,0.4,0.3,0.7,0.3l0.7,0.1c0.3,0,0.4,0.2,0.4,0.4
		c0,0.3-0.2,0.4-0.5,0.4l-2.6-0.1l-2.7,0.1c-0.3,0-0.4-0.1-0.4-0.4s0.1-0.4,0.3-0.4l0.6-0.1c0.9-0.1,1.4-0.5,1.7-1.2l7.7-19
		c0.1-0.2,0.3-0.4,0.7-0.4s0.6,0.1,0.7,0.4l7.7,19c0.3,0.7,0.8,1.2,1.7,1.2l0.6,0.1c0.1,0,0.2,0,0.2,0.1c0.1,0.1,0.1,0.2,0.1,0.2
		c0,0.3-0.1,0.5-0.4,0.5l-3.5-0.1l-3.1,0.1c-0.3,0-0.4-0.1-0.4-0.4s0.1-0.4,0.4-0.5l0.7-0.1c0.3,0,0.5-0.1,0.6-0.3
		c0.2-0.2,0.3-0.3,0.3-0.5s0-0.3-0.1-0.4l-1.8-4.6c-0.1-0.2-0.2-0.3-0.5-0.3H121c-0.2,0-0.4,0.1-0.5,0.3L118.7,66.7z M121.5,60.5
		h6.7c0.2,0,0.3-0.1,0.2-0.4l-3.6-9.2l-3.6,9.2C121.2,60.4,121.3,60.5,121.5,60.5z"/>
	<path d="M150.1,47.7c2.3,0,4.1,0.5,5.4,1.6c1.3,1.1,1.9,2.5,1.9,4.2c0,1.8-0.6,3.2-1.9,4.4c-1.3,1.2-3,1.7-5.1,1.7h-3.5
		c-0.3,0-0.5,0.1-0.5,0.4v6.8c0,0.4,0.1,0.7,0.4,0.9c0.3,0.2,0.6,0.3,1,0.4l1.3,0.1c0.2,0,0.3,0.1,0.3,0.4S149.3,69,149,69l-3.8-0.1
		l-3.3,0.1c-0.3,0-0.5-0.1-0.5-0.4s0.1-0.4,0.4-0.5l0.9-0.1c0.8-0.1,1.2-0.5,1.2-1.2v-17c0-0.7-0.5-1.1-1.4-1.2l-0.9-0.1
		c-0.2,0-0.3-0.2-0.3-0.4c0-0.3,0.1-0.4,0.4-0.4l4.1,0.1h4.3V47.7z M153.3,57c0.9-0.9,1.4-2,1.4-3.3c0-1.4-0.5-2.5-1.4-3.3
		s-2.2-1.3-3.8-1.3h-1.8c-0.8,0-1.2,0.4-1.2,1.2v7.6c0,0.3,0.1,0.4,0.3,0.4h2.7C151.1,58.3,152.4,57.8,153.3,57z"/>
	<path d="M166.1,68.8c-0.3,0-0.4-0.1-0.4-0.4s0.1-0.4,0.3-0.4l0.5-0.1c0.8-0.1,1.2-0.5,1.2-1.2v-17c0-0.7-0.5-1.1-1.4-1.2l-0.9-0.1
		c-0.2,0-0.3-0.2-0.3-0.4c0-0.3,0.1-0.4,0.4-0.4l3.4,0.1l3-0.1c0.3,0,0.4,0.1,0.4,0.4c0,0.3-0.1,0.4-0.4,0.5l-0.5,0.1
		c-0.8,0.1-1.2,0.5-1.2,1.2v17c0,0.4,0.1,0.6,0.4,0.9c0.3,0.2,0.6,0.3,1,0.4l0.9,0.1c0.2,0,0.4,0.1,0.4,0.4c0,0.1,0,0.2-0.1,0.3
		c-0.1,0.1-0.2,0.1-0.3,0.1l-3.4-0.1L166.1,68.8z"/>
	<path d="M190.4,49.9v16.8c0,0.4,0.1,0.6,0.4,0.9c0.3,0.2,0.6,0.3,1,0.4l0.9,0.1c0.2,0,0.4,0.1,0.4,0.4c0,0.1,0,0.2-0.1,0.3
		c-0.1,0.1-0.2,0.1-0.3,0.1l-3.4-0.1l-3.7,0.1c-0.1,0-0.2,0-0.3-0.1s-0.1-0.2-0.1-0.3c0-0.3,0.1-0.4,0.4-0.4l1.1-0.1
		c0.4,0,0.7-0.2,1-0.4c0.3-0.2,0.4-0.5,0.4-0.9V49.9c0-0.5-0.3-0.8-0.8-0.8h-2.5c-1,0-1.8,0.3-2.3,0.8c-0.6,0.5-1,1.3-1.3,2.4
		c-0.1,0.3-0.3,0.5-0.5,0.5s-0.4-0.1-0.5-0.2c-0.1-0.1-0.1-0.2-0.1-0.4l0.2-3.9c0-0.4,0.3-0.6,0.7-0.6h16.6c0.4,0,0.6,0.2,0.7,0.7
		l0.3,3.7c0,0.2,0,0.3-0.1,0.4c-0.1,0.1-0.3,0.2-0.5,0.2s-0.4-0.2-0.5-0.5c-0.4-1.1-0.8-1.8-1.4-2.4c-0.6-0.5-1.3-0.8-2.3-0.8h-2.5
		C190.7,49.1,190.4,49.4,190.4,49.9z"/>
	<path d="M204.9,66.7c0,0.1-0.1,0.3-0.1,0.4c0,0.2,0.1,0.3,0.2,0.5c0.2,0.2,0.4,0.3,0.7,0.3l0.7,0.1c0.3,0,0.4,0.2,0.4,0.4
		c0,0.3-0.2,0.4-0.5,0.4l-2.6-0.1l-2.7,0.1c-0.3,0-0.4-0.1-0.4-0.4s0.1-0.4,0.3-0.4l0.6-0.1c0.9-0.1,1.4-0.5,1.7-1.2l7.7-19
		c0.1-0.2,0.3-0.4,0.7-0.4s0.6,0.1,0.7,0.4l7.7,19c0.3,0.7,0.8,1.2,1.7,1.2l0.6,0.1c0.1,0,0.2,0,0.2,0.1c0.1,0.1,0.1,0.2,0.1,0.2
		c0,0.3-0.1,0.5-0.4,0.5l-3.5-0.1l-3.1,0.1c-0.3,0-0.4-0.1-0.4-0.4s0.1-0.4,0.4-0.5l0.7-0.1c0.3,0,0.5-0.1,0.6-0.3
		c0.2-0.2,0.3-0.3,0.3-0.5s0-0.3-0.1-0.4l-1.8-4.6c-0.1-0.2-0.2-0.3-0.5-0.3H207c-0.2,0-0.4,0.1-0.5,0.3L204.9,66.7z M207.7,60.5
		h6.7c0.2,0,0.3-0.1,0.2-0.4l-3.6-9.2l-3.6,9.2C207.4,60.4,207.4,60.5,207.7,60.5z"/>
	<path d="M232.6,49.7V66c0,0.4,0.1,0.8,0.4,1s0.6,0.4,1.1,0.4h4.4c1.1,0,2-0.3,2.7-0.8c0.8-0.5,1.3-1.3,1.6-2.2
		c0.1-0.3,0.3-0.5,0.6-0.5c0.3,0,0.5,0.2,0.4,0.5l-0.5,3.1c0,0.3-0.2,0.6-0.4,0.9c-0.2,0.2-0.6,0.3-0.9,0.3h-10.6l-3.4,0.1
		c-0.3,0-0.4-0.1-0.4-0.4s0.1-0.4,0.3-0.4l0.9-0.1c0.4,0,0.7-0.2,1-0.4s0.4-0.5,0.4-0.9v-17c0-0.7-0.5-1.1-1.4-1.2l-0.9-0.1
		c-0.2,0-0.3-0.2-0.3-0.4c0-0.3,0.1-0.4,0.4-0.4l3.4,0.1l3-0.1c0.3,0,0.4,0.1,0.4,0.4c0,0.3-0.1,0.4-0.4,0.5l-0.5,0.1
		C233,48.6,232.6,49,232.6,49.7z"/>
</g>
<g>
	<path d="M44.9,30.8c0-1.4-1.2-2.6-2.6-2.6h-9.9v5.2h9.9C43.7,33.4,44.9,32.3,44.9,30.8z"/>
	<path d="M59.1,17.4c-0.1-1.3-1-2.3-2.2-2.6c-0.2,0-0.3-0.1-0.5-0.1l-39.4-0.1l-0.1,54.4l39.4,0.1c0.7,0,1.5-0.3,2-0.8
		c0.5-0.5,0.8-1.1,0.8-1.8c0.6-0.1,1.1-0.4,1.6-0.9c0.7-0.7,1-2.7,1-3.4l0.1-41.7C61.6,19,60.6,17.7,59.1,17.4z M31.5,27.4h0.4h0.4
		h9.9c1.9,0,3.5,1.5,3.5,3.5c0,1.9-1.5,3.5-3.5,3.5h-9.9v3h-0.9V27.4z M45.8,56.2l-15.8,0l0-1l15.8,0L45.8,56.2z M60.5,62.3
		c0,0.8-0.3,2.3-0.7,2.6c-0.2,0.2-0.5,0.4-0.9,0.5l0.1-47c0.9,0.3,1.5,1.2,1.5,2.2L60.5,62.3z"/>
</g>
</svg>
