<?xml version="1.0" encoding="utf-8"?>
<!-- Generator: Adobe Illustrator 22.1.0, SVG Export Plug-In . SVG Version: 6.00 Build 0)  -->
<svg version="1.1" id="Layer_1" xmlns="http://www.w3.org/2000/svg" xmlns:xlink="http://www.w3.org/1999/xlink" x="0px" y="0px"
	 viewBox="0 0 100 100" style="enable-background:new 0 0 100 100;" xml:space="preserve">
<path d="M99.3,52.2c-1.2,0-1.8-0.5-2.9-1.7l-0.1-0.1c-1.2-1.2-2.9-2.9-6-2.9s-4.7,1.7-6,2.9L84,50.7c-1,1-1.6,1.5-2.7,1.5
	c-1.2,0-1.8-0.5-2.9-1.7l-0.1-0.1c-1.2-1.2-2.9-2.9-6-2.9s-4.7,1.7-6,2.9L66,50.7c-1,1-1.6,1.5-2.7,1.5c-1.2,0-1.8-0.5-2.9-1.7
	l-0.1-0.1c-1.2-1.2-2.9-2.9-6-2.9c-3.1,0-4.7,1.7-6,2.9l-0.3,0.3c-1,1-1.6,1.5-2.7,1.5c-1.2,0-1.8-0.5-2.9-1.7l-0.1-0.1
	c-1.2-1.2-2.9-2.9-6-2.9s-4.7,1.7-6,2.9l-0.3,0.3c-1,1-1.6,1.5-2.7,1.5c-1.2,0-1.8-0.5-2.9-1.7l-0.1-0.1c-1.2-1.2-2.9-2.9-6-2.9
	s-4.7,1.7-6,2.9l-0.3,0.3c-1,1-1.6,1.5-2.7,1.5c-1.2,0-1.8-0.5-2.9-1.7l-0.1-0.1c-1.2-1.2-2.9-2.9-6-2.9c-1.3,0-2.2,0.9-2.2,2.2
	s0.9,2.2,2.2,2.2c1.2,0,1.8,0.5,2.9,1.7l0.1,0.1c1.2,1.2,2.9,2.9,6,2.9s4.7-1.7,6-2.9l0.3-0.3c1-1,1.6-1.5,2.7-1.5
	c1.2,0,1.8,0.5,2.9,1.7l0.1,0.1c1.2,1.2,2.9,2.9,6,2.9s4.7-1.7,6-2.9l0.3-0.3c1-1,1.6-1.5,2.7-1.5c1.2,0,1.8,0.5,2.9,1.7l0.1,0.1
	c1.2,1.2,2.9,2.9,6,2.9c3.1,0,4.7-1.7,6-2.9l0.3-0.3c1-1,1.6-1.5,2.7-1.5c1.2,0,1.8,0.5,2.9,1.7l0.1,0.1c1.2,1.2,2.9,2.9,6,2.9
	s4.7-1.7,6-2.9l0.3-0.3c1-1,1.6-1.5,2.7-1.5c1.2,0,1.8,0.5,2.9,1.7l0.1,0.1c1.2,1.2,2.9,2.9,6,2.9s4.7-1.7,6-2.9l0.3-0.3
	c1-1,1.6-1.5,2.7-1.5c1.2,0,1.8,0.5,2.9,1.7l0.1,0.1c1.2,1.2,2.9,2.9,6,2.9c1.3,0,2.2-0.9,2.2-2.2C101.5,53.2,100.5,52.2,99.3,52.2z
	"/>
</svg>
