<?xml version="1.0" encoding="utf-8"?>
<!-- Generator: Adobe Illustrator 22.1.0, SVG Export Plug-In . SVG Version: 6.00 Build 0)  -->
<svg version="1.1" id="Layer_1" xmlns="http://www.w3.org/2000/svg" xmlns:xlink="http://www.w3.org/1999/xlink" x="0px" y="0px"
	 viewBox="0 0 100 100" style="enable-background:new 0 0 100 100;" xml:space="preserve">
<g>
	<g>
		<path d="M49.8,61.4c-0.3,0.1-0.9,0.2-1.8,0.3c-0.9,0.1-1.4-0.3-1.5-0.8c0-0.1-0.1-1.3-0.1-3.7c0-2.4-0.1-3.6-0.1-3.7
			c-0.1-0.1-1.3-0.1-3.6-0.1c-2.3,0-3.6-0.1-3.7-0.1c-0.4-0.1-0.6-0.4-0.6-1v-0.4c0-1.1,0.1-1.8,0.5-2.1c0.3-0.1,1.2-0.2,2.8-0.2
			h1.1h0.4h1.6c0.8,0,1.4,0,1.6-0.1c0.1-0.1,0.2-0.6,0.2-1.8l-0.1-1.8l0.1-1.9c0-0.3,0.1-0.6,0.1-1.2c0-0.6,0.1-0.8,0.5-1.1
			c0.3-0.1,0.8-0.3,1.6-0.2h0.4c0.7,0,1.1,0.1,1.2,0.4c0.1,0.2,0.1,1.6,0.2,4c0,2.4,0.1,3.7,0.1,3.8s1.3,0.1,3.7,0.1
			c2.4,0,3.7,0,3.7,0.1c0.4,0.1,0.5,0.5,0.6,1c0,1.4-0.2,2.2-0.6,2.3c-0.3,0.1-1.3,0.1-3,0.2h-3.1c-0.7,0-1.2,0.1-1.2,0.4
			c0,0,0,0.7,0,2v2.7V60C50.3,60.7,50.1,61.2,49.8,61.4z"/>
	</g>
</g>
</svg>
