<?xml version="1.0" encoding="utf-8"?>
<!-- Generator: Adobe Illustrator 22.1.0, SVG Export Plug-In . SVG Version: 6.00 Build 0)  -->
<svg version="1.1" id="Layer_1" xmlns="http://www.w3.org/2000/svg" xmlns:xlink="http://www.w3.org/1999/xlink" x="0px" y="0px"
	 viewBox="0 0 100 100" style="enable-background:new 0 0 100 100;" xml:space="preserve">
<path d="M48.4,36.9c0.7,0,1.1,0.1,1.3,0.3s0.3,0.9,0.3,2c0,1.2,0.1,1.8,0.3,2s0.5,0.4,1.1,0.6s1.1,0.5,1.6,0.8
	c0.5,0.3,1.1,0.8,1.8,1.5c0.7,0.7,1.3,1.5,1.7,2.5c0.4,0.9,0.7,1.5,1,1.8s0.9,0.4,2.1,0.4c1.2,0,1.8,0.1,2,0.3
	c0.2,0.2,0.3,0.6,0.2,1.3c0,0.7-0.2,1.1-0.4,1.4s-0.9,0.4-2,0.4s-1.7,0.1-2,0.3c-0.2,0.2-0.6,0.8-1.1,1.8c-0.5,1-1.1,1.8-1.7,2.4
	c-0.6,0.6-1.4,1.2-2.4,1.7c-1,0.5-1.5,0.8-1.5,0.8c-0.4,0.4-0.7,1-0.7,1.8c0,1.4-0.1,2.3-0.4,2.5c-0.3,0.3-0.8,0.4-1.4,0.4
	c-0.7,0-1.1-0.1-1.3-0.3c-0.2-0.2-0.2-0.9-0.2-2.1c0-1.2-0.1-1.9-0.2-2c-0.1-0.1-0.5-0.4-1.1-0.6c-0.6-0.3-1.2-0.6-1.6-0.8
	c-0.5-0.2-1-0.7-1.7-1.3c-0.6-0.6-1.2-1.3-1.5-2l-0.6-1.2c-0.2-0.5-0.4-0.8-0.7-1.1C38.9,52.1,38.2,52,37,52c-1.1,0-1.8-0.1-2-0.3
	c-0.2-0.2-0.3-0.6-0.2-1.3c0-0.7,0.2-1.1,0.4-1.4c0.2-0.2,0.9-0.4,2-0.4c1.1,0,1.7-0.1,1.9-0.3c0.2-0.2,0.6-0.8,1.1-1.8
	c0.5-1,1.1-1.8,1.7-2.4c0.6-0.6,1.1-1,1.6-1.3c0.4-0.2,0.9-0.5,1.4-0.7c0.5-0.2,0.8-0.4,0.9-0.5c0.4-0.4,0.7-1,0.7-1.8
	c0-1.5,0.2-2.3,0.4-2.6C47.2,37,47.7,36.8,48.4,36.9z M44.4,46l-0.5,0.5c-0.9,0.9-1.3,2.1-1.2,3.6c0.1,1.5,0.5,2.7,1.4,3.6l0.7,0.7
	c1,1,2.2,1.5,3.7,1.5c1.5,0.1,2.7-0.3,3.6-1.2l0.5-0.5c0.9-0.9,1.3-2.1,1.2-3.6c-0.1-1.5-0.6-2.8-1.7-3.9l-0.3-0.3
	c-1-1-2.2-1.5-3.8-1.7C46.6,44.6,45.3,45,44.4,46z"/>
</svg>
