<?xml version="1.0" encoding="utf-8"?>
<!-- Generator: Adobe Illustrator 22.1.0, SVG Export Plug-In . SVG Version: 6.00 Build 0)  -->
<svg version="1.1" id="Layer_1" xmlns="http://www.w3.org/2000/svg" xmlns:xlink="http://www.w3.org/1999/xlink" x="0px" y="0px"
	 viewBox="0 0 100 100" style="enable-background:new 0 0 100 100;" xml:space="preserve">
<style type="text/css">
	.st0{fill:none;stroke:#000000;stroke-width:5;stroke-miterlimit:10;}
	.st1{fill:none;stroke:#000000;stroke-width:4;stroke-miterlimit:10;}
</style>
<rect x="911.5" y="1838.5" class="st0" width="100.7" height="100.7"/>
<polygon class="st1" points="961,1880 950.6,1898 971.4,1898 "/>
<polygon points="99.7,48 85.4,48 85.4,43.5 82.4,43.5 82.4,48 67.9,48 67.9,43.5 64.9,43.5 64.9,48 50.4,48 50.4,43.5 47.4,43.5 
	47.4,48 32.9,48 32.9,43.5 29.9,43.5 29.9,48 15.4,48 15.4,43.5 12.4,43.5 12.4,48 -1,48 -1,52 12.4,52 12.4,56.6 15.4,56.6 
	15.4,52 29.9,52 29.9,56.6 32.9,56.6 32.9,52 47.4,52 47.4,56.6 50.4,56.6 50.4,52 64.9,52 64.9,56.6 67.9,56.6 67.9,52 82.4,52 
	82.4,56.6 85.4,56.6 85.4,52 99.7,52 "/>
</svg>
