<?xml version="1.0" encoding="utf-8"?>
<!-- Generator: Adobe Illustrator 23.0.1, SVG Export Plug-In . SVG Version: 6.00 Build 0)  -->
<svg version="1.1" id="Layer_1" xmlns="http://www.w3.org/2000/svg" xmlns:xlink="http://www.w3.org/1999/xlink" x="0px" y="0px"
	 viewBox="0 0 100 100" style="enable-background:new 0 0 100 100;" xml:space="preserve">
<path d="M70.2,48.46l0.04-0.27c-0.01-0.54-0.05-0.88-0.08-1.01c-0.51-1.67-0.8-2.37-0.94-2.65c-0.27-0.34-0.54-0.7-0.81-1.07
	c-0.59-0.79-0.94-1.15-1.1-1.29c-0.15-0.13-0.54-0.44-1.46-0.96c-1.04-0.56-2.15-0.98-3.29-1.23c-0.19-0.01-0.51-0.05-1.12-0.15
	c-0.48-0.08-1.01-0.11-1.56-0.11c-0.78,0-1.44,0.07-1.97,0.21c-0.52,0.17-1.03,0.36-1.43,0.56c-0.39,0.19-0.86,0.47-1.39,0.85
	c-0.26,0.16-0.56,0.37-1.01,0.69c-0.55,0.39-0.8,0.62-0.91,0.73c-0.22,0.22-0.49,0.52-0.8,0.9c-0.6,0.61-0.97,1.01-1.22,1.32
	l-1.36,1.7l-1.37-1.7c-0.02-0.02-0.17-0.21-1.01-1.05c-0.33-0.26-0.73-0.65-1.13-1.13c-0.09-0.08-0.32-0.26-0.71-0.53
	c-0.48-0.33-0.84-0.59-1.1-0.77c-0.86-0.59-1.94-1.09-3.19-1.46c-0.81-0.21-2.18-0.26-3.39-0.1c-0.49,0.06-0.82,0.11-0.98,0.14
	c-1.17,0.25-2.26,0.64-3.21,1.16c-0.6,0.36-1.11,0.7-1.45,0.97c-0.27,0.21-0.59,0.57-0.91,1.03c-0.44,0.63-0.78,1.09-1,1.38
	c0,0-0.31,0.54-0.97,2.59c-0.07,0.7-0.08,0.98-0.08,1.09l-0.05,0.7c0,0.97,0.06,1.48,0.11,1.75c0.06,0.17,0.2,0.65,0.41,1.38
	c0.23,0.82,0.4,1.14,0.46,1.24L31,54.63l0.41,0.5c0.36,0.5,0.66,0.86,0.93,1.13c0.12,0.13,0.45,0.4,1.19,0.8
	c0.87,0.45,1.36,0.64,1.62,0.71c0.47,0.13,1.02,0.27,1.65,0.4c0.69,0.17,2.42,0.47,4.95-0.1c0.88-0.2,1.85-0.67,2.87-1.39
	c0.62-0.42,1.2-0.88,1.74-1.35l3.42-3.84l3.35,3.86c0.39,0.31,0.98,0.77,1.77,1.37c0.52,0.32,1.07,0.65,1.54,0.9
	c0.36,0.19,0.79,0.35,1.27,0.45c1.74,0.41,3.34,0.45,4.88,0.12c0.11-0.04,0.39-0.11,1.25-0.27c0.35-0.06,0.99-0.27,2.13-0.87
	c0.72-0.4,1.05-0.67,1.17-0.8c0.27-0.27,0.56-0.62,0.86-1.04l0.55-0.68c0.02-0.02,0.23-0.33,0.69-1.14
	c0.12-0.19,0.29-0.56,0.53-1.33c0.19-0.62,0.33-1.05,0.42-1.32c0.05-0.42,0.07-1.01,0.07-1.76c0-0.12,0-0.21,0-0.28L70.2,48.46z
	 M46.85,49.9c-0.61,0.86-1.3,1.62-2.03,2.28c-0.56,0.57-1.36,1.17-2.26,1.7c-0.42,0.23-0.77,0.41-1.11,0.55
	c-0.24,0.11-0.4,0.18-0.46,0.21l-0.3,0.15l-1.78,0.15l-0.07-0.01c-0.59-0.06-1.15-0.19-1.82-0.41c-0.97-0.34-1.27-0.48-1.5-0.64
	l-0.2-0.16c-0.11-0.11-0.23-0.22-0.41-0.38c-0.28-0.26-0.5-0.51-0.67-0.78c-0.44-0.55-0.77-1.15-0.99-1.77
	c-0.22-0.64-0.34-1.4-0.34-2.24l0.01-0.21c0.11-0.92,0.38-1.65,0.79-2.24l0.47-0.66l0.75-0.75c0.66-0.61,1.39-1,2.26-1.21
	c0.38-0.14,1-0.21,1.77-0.21l1.79,0.2c0.24,0.08,0.58,0.21,1.02,0.39c0.53,0.22,1.01,0.48,1.41,0.79c1.54,1.14,1.62,1.23,1.73,1.33
	c0.73,0.62,1.37,1.25,1.83,1.78l0.88,1.04L46.85,49.9z M65.08,52.71l-0.02,0.02l-1.11,1.12l-0.16,0.08
	c-0.06,0.03-0.18,0.09-0.35,0.18c-0.36,0.2-0.76,0.33-1.19,0.4c-0.27,0.08-0.73,0.15-1.41,0.23l-0.15,0.01H59.4
	c-0.23,0-0.39-0.03-1.02-0.19c-0.63-0.16-1.27-0.52-1.88-1.07l-2.45-2.2c-0.45-0.42-0.85-0.91-1.22-1.45l-0.7-1.05l0.77-1
	c0.57-0.73,1.17-1.37,1.79-1.91c0.35-0.31,0.72-0.61,1.09-0.88c0.28-0.2,0.52-0.38,0.71-0.54c0.83-0.62,1.65-0.98,2.54-1.13
	c1.04-0.21,2-0.2,2.83,0.04c0.09,0.03,0.16,0.05,0.21,0.06l0.23,0.04c0.75,0.23,1.41,0.58,2.03,1.06l0.21,0.19l1.25,1.48
	c0.33,0.54,0.55,1.19,0.7,1.97l0.03,0.25C66.52,50.18,66.04,51.6,65.08,52.71z"/>
</svg>
