<?xml version="1.0" encoding="utf-8"?>
<!-- Generator: Adobe Illustrator 22.1.0, SVG Export Plug-In . SVG Version: 6.00 Build 0)  -->
<svg version="1.1" id="Layer_1" xmlns="http://www.w3.org/2000/svg" xmlns:xlink="http://www.w3.org/1999/xlink" x="0px" y="0px"
	 viewBox="0 0 100 100" style="enable-background:new 0 0 100 100;" xml:space="preserve">
<g>
	<path d="M909,1836v105.7h105.7V1836H909z M1009.7,1936.7H914V1841h95.7V1936.7z"/>
	<path d="M961,1876l-13.9,24h27.7L961,1876z M961,1884l6.9,12h-13.9L961,1884z"/>
	<path d="M79.4,32.9l-2.8-2.8L64.7,42H35.8L23.9,30.1l-2.8,2.8L33,44.8v11.8L21.1,68.6l2.8,2.8L35.3,60h29.8l11.4,11.4l2.8-2.8
		L68,57.2V44.3L79.4,32.9z M64,56H37V46h27V56z"/>
</g>
</svg>
