<?xml version="1.0" encoding="utf-8"?>
<!-- Generator: Adobe Illustrator 23.0.3, SVG Export Plug-In . SVG Version: 6.00 Build 0)  -->
<svg version="1.1" id="Layer_1" xmlns="http://www.w3.org/2000/svg" xmlns:xlink="http://www.w3.org/1999/xlink" x="0px" y="0px"
	 viewBox="0 0 360 249.5" style="enable-background:new 0 0 360 249.5;" xml:space="preserve">
<style type="text/css">
	.st0{fill:#070D11;}
	.st1{fill:#FFFFFF;}
</style>
<polygon class="st0" points="325.1,106.1 270.2,106.1 287.1,41.9 246.7,41.9 229.8,106.1 189.4,106.1 206.3,41.9 165.9,41.9 
	149,106.1 136.4,106.1 119.5,41.9 79,41.9 95.9,106.1 37.1,106.1 37.1,141.4 139.7,141.4 122.4,206.6 162.9,206.6 180.1,141.4 
	220.5,141.4 203.3,206.6 243.7,206.6 260.9,141.4 325.1,141.4 "/>
<g>
	<path class="st1" d="M126.5,123.7v-4.4h6v1.9h-3.8v1.6h3.1v1.8h-3.1v1.6h3.8v1.9h-6V123.7z M114.1,123.7v-4.4l1,0l1,0l1.4,2.6
		l1.4,2.6l0-5.3h2v8.8H119l-1.3-2.5c-0.7-1.4-1.4-2.6-1.4-2.6c-0.1-0.1-0.1,0.1-0.1,2.5l0,2.6h-2V123.7z M106.4,123.7v-4.4h2.2v8.8
		h-2.2V123.7z M95.3,123.7v-4.4h2.2v6.8h4v2h-6.2V123.7z M84.1,123.7v-4.4h6v1.9h-3.8v1.6h3.1v1.8h-3.1v1.6h3.8v1.9h-6V123.7z
		 M76.2,123c0.4-0.2,0.6-0.8,0.4-1.3c-0.2-0.4-0.5-0.5-1.5-0.5l-0.9,0v2l0.9,0C75.7,123.1,76.1,123.1,76.2,123z M72.1,123.7v-4.4
		l1.8,0c2.3,0,2.8,0.1,3.5,0.4c0.5,0.2,0.6,0.3,0.9,0.7c0.5,0.6,0.6,1.1,0.6,1.8c-0.1,0.9-0.5,1.8-1.2,2.2c-0.1,0.1-0.2,0.2-0.2,0.2
		c0,0,0.4,0.8,0.8,1.8l0.8,1.7h-2.5l-0.7-1.6l-0.7-1.6h-1v3.2h-2.2V123.7z M64.4,123.7v-4.4h2.2v8.8h-2.2V123.7z"/>
	<polygon class="st1" points="61.3,122.7 58.4,122.7 59.3,119.3 57.1,119.3 56.2,122.7 54.1,122.7 55,119.3 52.8,119.3 51.9,122.7 
		51.2,122.7 50.3,119.3 48.2,119.3 49.1,122.7 45.9,122.7 45.9,124.6 51.4,124.6 50.5,128.1 52.7,128.1 53.6,124.6 55.7,124.6 
		54.8,128.1 57,128.1 57.9,124.6 61.3,124.6 	"/>
</g>
</svg>
